<svg viewBox="0 0 600 400" xmlns="http://www.w3.org/2000/svg">
<g transform="translate(72, 364)">
<g>
<g>
<circle cx="0" cy="-255" fill="#DD3355" r="5"/>
<circle cx="4.8" cy="-261.6405177513316" fill="#DD3355" r="5"/>
<circle cx="9.6" cy="-264.4856174556122" fill="#DD3355" r="5"/>
<circle cx="14.400000000000002" cy="-263.5357300058884" fill="#DD3355" r="5"/>
<circle cx="19.2" cy="-258.9403208423886" fill="#DD3355" r="5"/>
<circle cx="24" cy="-250.98761509380577" fill="#DD3355" r="5"/>
<circle cx="28.8" cy="-240.08917662988688" fill="#DD3355" r="5"/>
<circle cx="33.6" cy="-226.76009877072943" fill="#DD3355" r="5"/>
<circle cx="38.39999999999999" cy="-211.59571436330543" fill="#DD3355" r="5"/>
<circle cx="43.199999999999996" cy="-195.24584275280543" fill="#DD3355" r="5"/>
<circle cx="47.99999999999999" cy="-178.38765797332346" fill="#DD3355" r="5"/>
<circle cx="52.79999999999999" cy="-161.69828444213115" fill="#DD3355" r="5"/>
<circle cx="57.6" cy="-145.82820448702793" fill="#DD3355" r="5"/>
<circle cx="62.4" cy="-131.37649820375998" fill="#DD3355" r="5"/>
<circle cx="67.20000000000002" cy="-118.86883388650747" fill="#DD3355" r="5"/>
<circle cx="72.00000000000001" cy="-108.73899217066831" fill="#DD3355" r="5"/>
<circle cx="76.80000000000001" cy="-101.31454507027158" fill="#DD3355" r="5"/>
<circle cx="81.60000000000002" cy="-96.80712960829004" fill="#DD3355" r="5"/>
<circle cx="86.40000000000002" cy="-95.30756221864826" fill="#DD3355" r="5"/>
<circle cx="91.20000000000002" cy="-96.78584273611105" fill="#DD3355" r="5"/>
<circle cx="96.00000000000003" cy="-101.09590330985931" fill="#DD3355" r="5"/>
<circle cx="100.80000000000003" cy="-107.98477551803015" fill="#DD3355" r="5"/>
<circle cx="105.60000000000002" cy="-117.10568502423058" fill="#DD3355" r="5"/>
<circle cx="110.40000000000005" cy="-128.0344434512643" fill="#DD3355" r="5"/>
<circle cx="115.20000000000005" cy="-140.28839621611266" fill="#DD3355" r="5"/>
<circle cx="120.00000000000004" cy="-153.3471066181674" fill="#DD3355" r="5"/>
<circle cx="124.80000000000004" cy="-166.67391250700908" fill="#DD3355" r="5"/>
<circle cx="129.60000000000005" cy="-179.73748310863857" fill="#DD3355" r="5"/>
<circle cx="134.40000000000003" cy="-192.03252935508272" fill="#DD3355" r="5"/>
<circle cx="139.20000000000007" cy="-203.0988793489659" fill="#DD3355" r="5"/>
<circle cx="144.00000000000006" cy="-212.53821809881555" fill="#DD3355" r="5"/>
<circle cx="148.80000000000007" cy="-220.02790310860252" fill="#DD3355" r="5"/>
<circle cx="153.60000000000008" cy="-225.331399632545" fill="#DD3355" r="5"/>
<circle cx="158.40000000000006" cy="-228.30502565136348" fill="#DD3355" r="5"/>
<circle cx="163.2000000000001" cy="-228.9008507392178" fill="#DD3355" r="5"/>
<circle cx="168.00000000000009" cy="-227.16574863536215" fill="#DD3355" r="5"/>
<circle cx="172.8000000000001" cy="-223.23675439815105" fill="#DD3355" r="5"/>
<circle cx="177.60000000000008" cy="-217.3330177231735" fill="#DD3355" r="5"/>
<circle cx="182.4000000000001" cy="-209.74476902322075" fill="#DD3355" r="5"/>
<circle cx="187.2000000000001" cy="-200.81981994325147" fill="#DD3355" r="5"/>
<circle cx="192.00000000000009" cy="-190.9482013527411" fill="#DD3355" r="5"/>
<circle cx="196.80000000000007" cy="-180.54559720330946" fill="#DD3355" r="5"/>
<circle cx="201.60000000000005" cy="-170.03626046998517" fill="#DD3355" r="5"/>
<circle cx="206.40000000000003" cy="-159.83609745502585" fill="#DD3355" r="5"/>
<circle cx="211.2" cy="-150.33657984229234" fill="#DD3355" r="5"/>
<circle cx="216" cy="-141.89009188612752" fill="#DD3355" r="5"/>
<circle cx="220.8" cy="-134.7972458049769" fill="#DD3355" r="5"/>
<circle cx="225.59999999999997" cy="-129.29660539863463" fill="#DD3355" r="5"/>
<circle cx="230.39999999999995" cy="-125.55715031572637" fill="#DD3355" r="5"/>
<circle cx="235.1999999999999" cy="-123.6736959347383" fill="#DD3355" r="5"/>
<circle cx="239.99999999999991" cy="-123.66536139979968" fill="#DD3355" r="5"/>
<circle cx="244.7999999999999" cy="-125.47705588281563" fill="#DD3355" r="5"/>
<circle cx="249.59999999999985" cy="-128.98383549531155" fill="#DD3355" r="5"/>
<circle cx="254.39999999999986" cy="-133.99787490589955" fill="#DD3355" r="5"/>
<circle cx="259.1999999999999" cy="-140.27770256479735" fill="#DD3355" r="5"/>
<circle cx="263.99999999999983" cy="-147.5392699317068" fill="#DD3355" r="5"/>
<circle cx="268.79999999999984" cy="-155.46836576049822" fill="#DD3355" r="5"/>
<circle cx="273.5999999999998" cy="-163.73384811726362" fill="#DD3355" r="5"/>
<circle cx="278.39999999999975" cy="-172.00115028409326" fill="#DD3355" r="5"/>
<circle cx="283.19999999999976" cy="-179.9455220109371" fill="#DD3355" r="5"/>
<circle cx="287.9999999999997" cy="-187.2644938900375" fill="#DD3355" r="5"/>
<circle cx="292.7999999999997" cy="-193.68909827687267" fill="#DD3355" r="5"/>
<circle cx="297.59999999999974" cy="-198.99344280755346" fill="#DD3355" r="5"/>
<circle cx="302.3999999999997" cy="-203.00230920485683" fill="#DD3355" r="5"/>
<circle cx="307.1999999999997" cy="-205.5965372921672" fill="#DD3355" r="5"/>
<circle cx="311.99999999999966" cy="-206.71604821535297" fill="#DD3355" r="5"/>
<circle cx="316.7999999999996" cy="-206.36045790888645" fill="#DD3355" r="5"/>
<circle cx="321.5999999999996" cy="-204.58732793269215" fill="#DD3355" r="5"/>
<circle cx="326.3999999999996" cy="-201.50819220445737" fill="#DD3355" r="5"/>
<circle cx="331.1999999999996" cy="-197.28258140328776" fill="#DD3355" r="5"/>
<circle cx="335.9999999999996" cy="-192.11033891713498" fill="#DD3355" r="5"/>
<circle cx="340.79999999999956" cy="-186.22258062102523" fill="#DD3355" r="5"/>
<circle cx="345.59999999999957" cy="-179.87169361044144" fill="#DD3355" r="5"/>
<circle cx="350.3999999999995" cy="-173.32079509265984" fill="#DD3355" r="5"/>
<circle cx="355.1999999999995" cy="-166.83308139244605" fill="#DD3355" r="5"/>
<circle cx="359.9999999999995" cy="-160.66148863807317" fill="#DD3355" r="5"/>
<circle cx="364.79999999999944" cy="-155.03906198546423" fill="#DD3355" r="5"/>
<circle cx="369.59999999999945" cy="-150.17039068779127" fill="#DD3355" r="5"/>
<circle cx="374.39999999999947" cy="-146.2244138972211" fill="#DD3355" r="5"/>
<circle cx="379.1999999999994" cy="-143.32883923665182" fill="#DD3355" r="5"/>
<circle cx="383.99999999999943" cy="-141.56634568661852" fill="#DD3355" r="5"/>
<circle cx="388.7999999999994" cy="-140.9726671840291" fill="#DD3355" r="5"/>
<circle cx="393.59999999999934" cy="-141.53657661579751" fill="#DD3355" r="5"/>
<circle cx="398.39999999999935" cy="-143.2017146702348" fill="#DD3355" r="5"/>
<circle cx="403.1999999999993" cy="-145.87013719422262" fill="#DD3355" r="5"/>
<circle cx="407.9999999999993" cy="-149.40739094447432" fill="#DD3355" r="5"/>
<circle cx="412.7999999999993" cy="-153.64887321498668" fill="#DD3355" r="5"/>
<circle cx="417.5999999999993" cy="-158.40718763435692" fill="#DD3355" r="5"/>
<circle cx="422.3999999999993" cy="-163.48017775594124" fill="#DD3355" r="5"/>
<circle cx="427.19999999999925" cy="-168.65930293739544" fill="#DD3355" r="5"/>
<circle cx="431.99999999999926" cy="-173.73801741655913" fill="#DD3355" r="5"/>
<circle cx="436.79999999999916" cy="-178.5198233907659" fill="#DD3355" r="5"/>
<circle cx="441.59999999999917" cy="-182.82569146048652" fill="#DD3355" r="5"/>
<circle cx="446.3999999999992" cy="-186.5005756984938" fill="#DD3355" r="5"/>
<circle cx="451.1999999999992" cy="-189.418794228458" fill="#DD3355" r="5"/>
<circle cx="455.9999999999992" cy="-191.4880975136559" fill="#DD3355" r="5"/>
<circle cx="460.7999999999991" cy="-192.65230336196976" fill="#DD3355" r="5"/>
<circle cx="465.5999999999991" cy="-192.89243751782655" fill="#DD3355" r="5"/>
<circle cx="470.39999999999907" cy="-192.2263792110567" fill="#DD3355" r="5"/>
<circle cx="475.1999999999991" cy="-190.70706976876863" fill="#DD3355" r="5"/>
<circle cx="479.9999999999991" cy="-188.419397115458" fill="#DD3355" r="5"/>
<circle cx="484.7999999999991" cy="-185.47591765761317" fill="#DD3355" r="5"/>
<circle cx="489.599999999999" cy="-182.01161791637537" fill="#DD3355" r="5"/>
<circle cx="494.399999999999" cy="-178.17795006373268" fill="#DD3355" r="5"/>
<circle cx="499.199999999999" cy="-174.1363970426598" fill="#DD3355" r="5"/>
<circle cx="503.999999999999" cy="-170.05183388094926" fill="#DD3355" r="5"/>
<circle cx="508.799999999999" cy="-166.08595203965896" fill="#DD3355" r="5"/>
<circle cx="513.5999999999989" cy="-162.39100309157183" fill="#DD3355" r="5"/>
<circle cx="518.399999999999" cy="-159.10409806092696" fill="#DD3355" r="5"/>
<circle cx="523.1999999999989" cy="-156.3422698948313" fill="#DD3355" r="5"/>
<circle cx="527.9999999999989" cy="-154.19847041899618" fill="#DD3355" r="5"/>
<circle cx="532.7999999999989" cy="-152.73863137628132" fill="#DD3355" r="5"/>
<circle cx="537.5999999999988" cy="-151.9998735368311" fill="#DD3355" r="5"/>
<circle cx="542.3999999999988" cy="-151.98990028123316" fill="#DD3355" r="5"/>
<circle cx="547.1999999999988" cy="-152.68756446714437" fill="#DD3355" r="5"/>
<circle cx="551.9999999999989" cy="-154.04455163965105" fill="#DD3355" r="5"/>
<circle cx="556.7999999999988" cy="-155.98808049116204" fill="#DD3355" r="5"/>
<circle cx="561.5999999999988" cy="-158.42448442767662" fill="#DD3355" r="5"/>
<circle cx="566.3999999999987" cy="-161.24350755958807" fill="#DD3355" r="5"/>
<circle cx="571.1999999999987" cy="-164.32312527631265" fill="#DD3355" r="5"/>
<circle cx="575.9999999999987" cy="-167.53468453057525" fill="#DD3355" r="5"/>
<circle cx="580.7999999999987" cy="-170.74815258927777" fill="#DD3355" r="5"/>
<circle cx="585.5999999999988" cy="-173.83726478193776" fill="#DD3355" r="5"/>
<circle cx="590.3999999999986" cy="-176.68437218803126" fill="#DD3355" r="5"/>
<circle cx="595.1999999999987" cy="-179.18480761300876" fill="#DD3355" r="5"/>
<circle cx="599.9999999999986" cy="-181.2506127118268" fill="#DD3355" r="5"/>
<circle cx="604.7999999999986" cy="-182.81349871505918" fill="#DD3355" r="5"/>
<circle cx="609.5999999999987" cy="-183.82694712571916" fill="#DD3355" r="5"/>
<circle cx="614.3999999999985" cy="-184.26739331550735" fill="#DD3355" r="5"/>
<circle cx="619.1999999999986" cy="-184.13447363268625" fill="#DD3355" r="5"/>
<circle cx="623.9999999999985" cy="-183.4503539920614" fill="#DD3355" r="5"/>
<circle cx="628.7999999999986" cy="-182.25819345998065" fill="#DD3355" r="5"/>
<circle cx="633.5999999999985" cy="-180.61982875638773" fill="#DD3355" r="5"/>
<circle cx="638.3999999999985" cy="-178.61279362034188" fill="#DD3355" r="5"/>
<circle cx="643.1999999999985" cy="-176.3268097710235" fill="#DD3355" r="5"/>
<circle cx="647.9999999999984" cy="-173.8599028959551" fill="#DD3355" r="5"/>
<circle cx="652.7999999999985" cy="-171.31430730878023" fill="#DD3355" r="5"/>
<circle cx="657.5999999999984" cy="-168.79232630731374" fill="#DD3355" r="5"/>
<circle cx="662.3999999999985" cy="-166.39231223050356" fill="#DD3355" r="5"/>
<circle cx="667.1999999999983" cy="-164.2049204259163" fill="#DD3355" r="5"/>
<circle cx="671.9999999999984" cy="-162.30977629162254" fill="#DD3355" r="5"/>
<circle cx="676.7999999999984" cy="-160.77267396678747" fill="#DD3355" r="5"/>
<circle cx="681.5999999999983" cy="-159.64340107247278" fill="#DD3355" r="5"/>
<circle cx="686.3999999999984" cy="-158.95425637115528" fill="#DD3355" r="5"/>
<circle cx="691.1999999999982" cy="-158.71929811405545" fill="#DD3355" r="5"/>
<circle cx="695.9999999999983" cy="-158.934330997743" fill="#DD3355" r="5"/>
<circle cx="700.7999999999982" cy="-159.57761040328253" fill="#DD3355" r="5"/>
<circle cx="705.5999999999983" cy="-160.61121507978507" fill="#DD3355" r="5"/>
<circle cx="710.3999999999983" cy="-161.98301457239256" fill="#DD3355" r="5"/>
<circle cx="715.1999999999982" cy="-163.62913659748304" fill="#DD3355" r="5"/>
<circle cx="719.9999999999982" cy="-165.476822615051" fill="#DD3355" r="5"/>
<circle cx="724.7999999999981" cy="-167.44754804859377" fill="#DD3355" r="5"/>
<circle cx="729.5999999999982" cy="-169.46027673217034" fill="#DD3355" r="5"/>
<circle cx="734.3999999999982" cy="-171.43471780564377" fill="#DD3355" r="5"/>
<circle cx="739.1999999999982" cy="-173.29445709909191" fill="#DD3355" r="5"/>
<circle cx="743.9999999999981" cy="-174.96984371819016" fill="#DD3355" r="5"/>
<circle cx="748.7999999999981" cy="-176.40052566317917" fill="#DD3355" r="5"/>
<circle cx="753.5999999999981" cy="-177.53754533701257" fill="#DD3355" r="5"/>
<circle cx="758.399999999998" cy="-178.3449255721385" fill="#DD3355" r="5"/>
<circle cx="763.1999999999981" cy="-178.80069900761987" fill="#DD3355" r="5"/>
<circle cx="767.999999999998" cy="-178.89735679309175" fill="#DD3355" r="5"/>
<circle cx="772.799999999998" cy="-178.64171618706106" fill="#DD3355" r="5"/>
<circle cx="777.5999999999981" cy="-178.05422940879868" fill="#DD3355" r="5"/>
<circle cx="782.3999999999982" cy="-177.1677774073771" fill="#DD3355" r="5"/>
<circle cx="787.1999999999982" cy="-176.02601114987726" fill="#DD3355" r="5"/>
<circle cx="791.9999999999983" cy="-174.68131892788054" fill="#DD3355" r="5"/>
<circle cx="796.7999999999984" cy="-173.19251059918332" fill="#DD3355" r="5"/>
<circle cx="801.5999999999984" cy="-171.62231805779194" fill="#DD3355" r="5"/>
<circle cx="806.3999999999985" cy="-170.03481553743808" fill="#DD3355" r="5"/>
<circle cx="811.1999999999986" cy="-168.49286343579882" fill="#DD3355" r="5"/>
<circle cx="815.9999999999986" cy="-167.05567536034044" fill="#DD3355" r="5"/>
<circle cx="820.7999999999987" cy="-165.77660031018652" fill="#DD3355" r="5"/>
<circle cx="825.5999999999988" cy="-164.70120073233605" fill="#DD3355" r="5"/>
<circle cx="830.399999999999" cy="-163.8656931846124" fill="#DD3355" r="5"/>
<circle cx="835.1999999999989" cy="-163.29580216199255" fill="#DD3355" r="5"/>
<circle cx="839.9999999999989" cy="-163.00605985335653" fill="#DD3355" r="5"/>
<circle cx="844.799999999999" cy="-162.99956617803633" fill="#DD3355" r="5"/>
<circle cx="849.5999999999991" cy="-163.2682049111635" fill="#DD3355" r="5"/>
<circle cx="854.3999999999993" cy="-163.7932939359186" fill="#DD3355" r="5"/>
<circle cx="859.1999999999992" cy="-164.54663124317514" fill="#DD3355" r="5"/>
<circle cx="863.9999999999993" cy="-165.4918839206838" fill="#DD3355" r="5"/>
<circle cx="868.7999999999995" cy="-166.58625542272628" fill="#DD3355" r="5"/>
<circle cx="873.5999999999995" cy="-167.78235742298287" fill="#DD3355" r="5"/>
<circle cx="878.3999999999994" cy="-169.03020668887942" fill="#DD3355" r="5"/>
<circle cx="883.1999999999996" cy="-170.2792648533996" fill="#DD3355" r="5"/>
<circle cx="887.9999999999997" cy="-171.48043970521934" fill="#DD3355" r="5"/>
<circle cx="892.7999999999996" cy="-172.5879705332367" fill="#DD3355" r="5"/>
<circle cx="897.5999999999998" cy="-173.56112690654658" fill="#DD3355" r="5"/>
<circle cx="902.3999999999999" cy="-174.36565968951408" fill="#DD3355" r="5"/>
<circle cx="907.2" cy="-174.9749546163038" fill="#DD3355" r="5"/>
<circle cx="912" cy="-175.3708519131581" fill="#DD3355" r="5"/>
<circle cx="916.8" cy="-175.5441096542789" fill="#DD3355" r="5"/>
<circle cx="921.6000000000001" cy="-175.49450317347126" fill="#DD3355" r="5"/>
<circle cx="926.4000000000002" cy="-175.23056738708985" fill="#DD3355" r="5"/>
<circle cx="931.2000000000004" cy="-174.76900270410763" fill="#DD3355" r="5"/>
<circle cx="936.0000000000003" cy="-174.133777791721" fill="#DD3355" r="5"/>
<circle cx="940.8000000000004" cy="-173.3549734030655" fill="#DD3355" r="5"/>
<circle cx="945.6000000000006" cy="-172.46742032314012" fill="#DD3355" r="5"/>
<circle cx="950.4000000000005" cy="-171.50919101284808" fill="#DD3355" r="5"/>
<circle cx="955.2000000000005" cy="-170.52000851545566" fill="#DD3355" r="5"/>
<circle cx="960.0000000000007" cy="-169.53963755992746" fill="#DD3355" r="5"/>
<circle cx="964.8000000000008" cy="-168.60632157824486" fill="#DD3355" r="5"/>
<circle cx="969.6000000000007" cy="-167.7553256647002" fill="#DD3355" r="5"/>
<circle cx="974.4000000000009" cy="-167.01763956999417" fill="#DD3355" r="5"/>
<circle cx="979.200000000001" cy="-166.41888694100734" fill="#DD3355" r="5"/>
<circle cx="984.0000000000011" cy="-165.97847755038384" fill="#DD3355" r="5"/>
<circle cx="988.8000000000011" cy="-165.70902863010505" fill="#DD3355" r="5"/>
<circle cx="993.600000000001" cy="-165.6160700815494" fill="#DD3355" r="5"/>
<circle cx="998.4000000000012" cy="-165.69803675208604" fill="#DD3355" r="5"/>
<circle cx="1003.2000000000013" cy="-165.94653959742413" fill="#DD3355" r="5"/>
<circle cx="1008.0000000000015" cy="-166.34689683552565" fill="#DD3355" r="5"/>
<circle cx="1012.8000000000014" cy="-166.87889654879078" fill="#DD3355" r="5"/>
<circle cx="1017.6000000000015" cy="-167.51775394318318" fill="#DD3355" r="5"/>
<circle cx="1022.4000000000017" cy="-168.2352199142158" fill="#DD3355" r="5"/>
<circle cx="1027.2000000000016" cy="-169.00079290840128" fill="#DD3355" r="5"/>
<circle cx="1032.0000000000016" cy="-169.782983437211" fill="#DD3355" r="5"/>
<circle cx="1036.8000000000018" cy="-170.55058002011978" fill="#DD3355" r="5"/>
<circle cx="1041.6000000000017" cy="-171.27386678764555" fill="#DD3355" r="5"/>
<circle cx="1046.400000000002" cy="-171.92574636399033" fill="#DD3355" r="5"/>
<circle cx="1051.200000000002" cy="-172.4827267242146" fill="#DD3355" r="5"/>
<circle cx="1056.000000000002" cy="-172.92573728348694" fill="#DD3355" r="5"/>
<circle cx="1060.8000000000022" cy="-173.24074721664692" fill="#DD3355" r="5"/>
<circle cx="1065.6000000000022" cy="-173.41916756825174" fill="#DD3355" r="5"/>
<circle cx="1070.4000000000021" cy="-173.4580277506079" fill="#DD3355" r="5"/>
<circle cx="1075.2000000000023" cy="-173.35992616504578" fill="#DD3355" r="5"/>
<circle cx="1080.0000000000023" cy="-173.13276356170886" fill="#DD3355" r="5"/>
<circle cx="1084.8000000000025" cy="-172.7892760314058" fill="#DD3355" r="5"/>
<circle cx="1089.6000000000026" cy="-172.346391892669" fill="#DD3355" r="5"/>
<circle cx="1094.4000000000026" cy="-171.82444293448182" fill="#DD3355" r="5"/>
<circle cx="1099.2000000000028" cy="-171.24626530461572" fill="#DD3355" r="5"/>
<circle cx="1104.0000000000027" cy="-170.6362286140107" fill="#DD3355" r="5"/>
<circle cx="1108.8000000000027" cy="-170.01923349479335" fill="#DD3355" r="5"/>
<circle cx="1113.6000000000029" cy="-169.41971794395695" fill="#DD3355" r="5"/>
<circle cx="1118.4000000000028" cy="-168.86071120538944" fill="#DD3355" r="5"/>
<circle cx="1123.200000000003" cy="-168.36297092908953" fill="#DD3355" r="5"/>
<circle cx="1128.0000000000032" cy="-167.94423505628154" fill="#DD3355" r="5"/>
<circle cx="1132.8000000000031" cy="-167.61861441265845" fill="#DD3355" r="5"/>
<circle cx="1137.6000000000033" cy="-167.39614570614665" fill="#DD3355" r="5"/>
<circle cx="1142.4000000000033" cy="-167.28251774559902" fill="#DD3355" r="5"/>
<circle cx="1147.2000000000032" cy="-167.27897651386024" fill="#DD3355" r="5"/>
<circle cx="1152.0000000000034" cy="-167.38240753746123" fill="#DD3355" r="5"/>
<circle cx="1156.8000000000034" cy="-167.5855870780695" fill="#DD3355" r="5"/>
<circle cx="1161.6000000000035" cy="-167.87758729035625" fill="#DD3355" r="5"/>
<circle cx="1166.4000000000037" cy="-168.24431488278262" fill="#DD3355" r="5"/>
<circle cx="1171.2000000000037" cy="-168.6691581793471" fill="#DD3355" r="5"/>
<circle cx="1176.0000000000039" cy="-169.13371398053147" fill="#DD3355" r="5"/>
<circle cx="1180.8000000000038" cy="-169.61856327233696" fill="#DD3355" r="5"/>
<circle cx="1185.6000000000038" cy="-170.10406394571908" fill="#DD3355" r="5"/>
<circle cx="1190.400000000004" cy="-170.5711288183192" fill="#DD3355" r="5"/>
<circle cx="1195.200000000004" cy="-171.0019588774914" fill="#DD3355" r="5"/>
<circle cx="1200.000000000004" cy="-171.38070427151018" fill="#DD3355" r="5"/>
<circle cx="1204.8000000000043" cy="-171.69402919271946" fill="#DD3355" r="5"/>
<circle cx="1209.6000000000042" cy="-171.93156134052862" fill="#DD3355" r="5"/>
<circle cx="1214.4000000000044" cy="-172.0862117072872" fill="#DD3355" r="5"/>
<circle cx="1219.2000000000044" cy="-172.1543559611256" fill="#DD3355" r="5"/>
<circle cx="1224.0000000000043" cy="-172.13587439380024" fill="#DD3355" r="5"/>
<circle cx="1228.8000000000045" cy="-172.0340530442915" fill="#DD3355" r="5"/>
<circle cx="1233.6000000000045" cy="-171.85535398588758" fill="#DD3355" r="5"/>
<circle cx="1238.4000000000046" cy="-171.60906766566134" fill="#DD3355" r="5"/>
<circle cx="1243.2000000000048" cy="-171.30686442958338" fill="#DD3355" r="5"/>
<circle cx="1248.0000000000048" cy="-170.9622658354712" fill="#DD3355" r="5"/>
<circle cx="1252.800000000005" cy="-170.590058893424" fill="#DD3355" r="5"/>
<circle cx="1257.600000000005" cy="-170.20567789461754" fill="#DD3355" r="5"/>
<circle cx="1262.4000000000049" cy="-169.82457911860516" fill="#DD3355" r="5"/>
<circle cx="1267.200000000005" cy="-169.4616331290847" fill="#DD3355" r="5"/>
<circle cx="1272.000000000005" cy="-169.13055805596346" fill="#DD3355" r="5"/>
<circle cx="1276.8000000000052" cy="-168.84341486867214" fill="#DD3355" r="5"/>
<circle cx="1281.6000000000054" cy="-168.61018267157604" fill="#DD3355" r="5"/>
<circle cx="1286.4000000000053" cy="-168.43842829612063" fill="#DD3355" r="5"/>
<circle cx="1291.2000000000055" cy="-168.33308041284897" fill="#DD3355" r="5"/>
<circle cx="1296.0000000000055" cy="-168.29631392890445" fill="#DD3355" r="5"/>
<circle cx="1300.8000000000054" cy="-168.3275459524734" fill="#DD3355" r="5"/>
<circle cx="1305.6000000000056" cy="-168.42354019355517" fill="#DD3355" r="5"/>
<circle cx="1310.4000000000055" cy="-168.57861248744473" fill="#DD3355" r="5"/>
<circle cx="1315.2000000000057" cy="-168.78492638117012" fill="#DD3355" r="5"/>
<circle cx="1320.000000000006" cy="-169.0328645282264" fill="#DD3355" r="5"/>
<circle cx="1324.8000000000059" cy="-169.31145902495018" fill="#DD3355" r="5"/>
<circle cx="1329.600000000006" cy="-169.6088621052822" fill="#DD3355" r="5"/>
<circle cx="1334.400000000006" cy="-169.9128374523501" fill="#DD3355" r="5"/>
<circle cx="1339.200000000006" cy="-170.21125225664176" fill="#DD3355" r="5"/>
<circle cx="1344.0000000000061" cy="-170.49255068753044" fill="#DD3355" r="5"/>
<circle cx="1348.800000000006" cy="-170.74619067201033" fill="#DD3355" r="5"/>
<circle cx="1353.6000000000063" cy="-170.96302798970586" fill="#DD3355" r="5"/>
<circle cx="1358.4000000000065" cy="-171.13563408344177" fill="#DD3355" r="5"/>
<circle cx="1363.2000000000064" cy="-171.25853711933615" fill="#DD3355" r="5"/>
<circle cx="1368.0000000000066" cy="-171.328379053797" fill="#DD3355" r="5"/>
<circle cx="1372.8000000000065" cy="-171.34398505357441" fill="#DD3355" r="5"/>
<circle cx="1377.6000000000065" cy="-171.3063451098296" fill="#DD3355" r="5"/>
<circle cx="1382.4000000000067" cy="-171.21851117988348" fill="#DD3355" r="5"/>
<circle cx="1387.2000000000066" cy="-171.08541637606749" fill="#DD3355" r="5"/>
<circle cx="1392.0000000000068" cy="-170.91362563158293" fill="#DD3355" r="5"/>
<circle cx="1396.800000000007" cy="-170.71102962521638" fill="#DD3355" r="5"/>
<circle cx="1401.600000000007" cy="-170.48649570294597" fill="#DD3355" r="5"/>
<circle cx="1406.4000000000071" cy="-170.24949075215187" fill="#DD3355" r="5"/>
<circle cx="1411.200000000007" cy="-170.0096916625115" fill="#DD3355" r="5"/>
<circle cx="1416.000000000007" cy="-169.7765990672447" fill="#DD3355" r="5"/>
<circle cx="1420.8000000000072" cy="-169.55916942234" fill="#DD3355" r="5"/>
<circle cx="1425.6000000000072" cy="-169.3654793192485" fill="#DD3355" r="5"/>
<circle cx="1430.4000000000074" cy="-169.2024342817569" fill="#DD3355" r="5"/>
<circle cx="1435.2000000000075" cy="-169.0755321720099" fill="#DD3355" r="5"/>
<circle cx="1440.0000000000075" cy="-168.98868885533287" fill="#DD3355" r="5"/>
<circle cx="1444.8000000000077" cy="-168.94413116864845" fill="#DD3355" r="5"/>
<circle cx="1449.6000000000076" cy="-168.94235937579592" fill="#DD3355" r="5"/>
<circle cx="1454.4000000000076" cy="-168.98217854864913" fill="#DD3355" r="5"/>
<circle cx="1459.2000000000078" cy="-169.06079560059092" fill="#DD3355" r="5"/>
<circle cx="1464.0000000000077" cy="-169.17397621212484" fill="#DD3355" r="5"/>
<circle cx="1468.800000000008" cy="-169.31625373221783" fill="#DD3355" r="5"/>
<circle cx="1473.600000000008" cy="-169.48118030086013" fill="#DD3355" r="5"/>
<circle cx="1478.400000000008" cy="-169.661609082342" fill="#DD3355" r="5"/>
<circle cx="1483.2000000000082" cy="-169.8499956148535" fill="#DD3355" r="5"/>
<circle cx="1488.0000000000082" cy="-170.03870587195863" fill="#DD3355" r="5"/>
<circle cx="1492.8000000000081" cy="-170.22031873329405" fill="#DD3355" r="5"/>
<circle cx="1497.6000000000083" cy="-170.38791115478844" fill="#DD3355" r="5"/>
<circle cx="1502.4000000000083" cy="-170.53531534728717" fill="#DD3355" r="5"/>
<circle cx="1507.2000000000085" cy="-170.65733869425873" fill="#DD3355" r="5"/>
<circle cx="1512.0000000000086" cy="-170.749938874896" fill="#DD3355" r="5"/>
<circle cx="1516.8000000000086" cy="-170.8103486230734" fill="#DD3355" r="5"/>
<circle cx="1521.6000000000088" cy="-170.83714673005255" fill="#DD3355" r="5"/>
<circle cx="1526.4000000000087" cy="-170.83027408025708" fill="#DD3355" r="5"/>
<circle cx="1531.2000000000087" cy="-170.7909957172622" fill="#DD3355" r="5"/>
<circle cx="1536.0000000000089" cy="-170.7218120234958" fill="#DD3355" r="5"/>
<circle cx="1540.8000000000088" cy="-170.62632400829966" fill="#DD3355" r="5"/>
<circle cx="1545.600000000009" cy="-170.5090593532073" fill="#DD3355" r="5"/>
<circle cx="1550.4000000000092" cy="-170.37526719941832" fill="#DD3355" r="5"/>
<circle cx="1555.2000000000091" cy="-170.23069066535695" fill="#DD3355" r="5"/>
<circle cx="1560.0000000000093" cy="-170.08132668902036" fill="#DD3355" r="5"/>
<circle cx="1564.8000000000093" cy="-169.93318299790425" fill="#DD3355" r="5"/>
<circle cx="1569.6000000000092" cy="-169.79204183767456" fill="#DD3355" r="5"/>
<circle cx="1574.4000000000094" cy="-169.66323953976737" fill="#DD3355" r="5"/>
<circle cx="1579.2000000000094" cy="-169.55147011708277" fill="#DD3355" r="5"/>
<circle cx="1584.0000000000095" cy="-169.4606198924376" fill="#DD3355" r="5"/>
<circle cx="1588.8000000000097" cy="-169.39363873274942" fill="#DD3355" r="5"/>
<circle cx="1593.6000000000097" cy="-169.35245187009744" fill="#DD3355" r="5"/>
<circle cx="1598.4000000000099" cy="-169.3379145729211" fill="#DD3355" r="5"/>
<circle cx="1603.2000000000098" cy="-169.34981017660968" fill="#DD3355" r="5"/>
<circle cx="1608.0000000000098" cy="-169.38689027348985" fill="#DD3355" r="5"/>
<circle cx="1612.80000000001" cy="-169.44695423701725" fill="#DD3355" r="5"/>
<circle cx="1617.60000000001" cy="-169.5269637926502" fill="#DD3355" r="5"/>
<circle cx="1622.40000000001" cy="-169.6231871012282" fill="#DD3355" r="5"/>
<circle cx="1627.2000000000103" cy="-169.73136582428242" fill="#DD3355" r="5"/>
<circle cx="1632.0000000000102" cy="-169.84689793031592" fill="#DD3355" r="5"/>
<circle cx="1636.8000000000104" cy="-169.96502859627148" fill="#DD3355" r="5"/>
<circle cx="1641.6000000000101" cy="-170.08104146764364" fill="#DD3355" r="5"/>
<circle cx="1646.4000000000106" cy="-170.1904427549138" fill="#DD3355" r="5"/>
<circle cx="1651.2000000000105" cy="-170.28913114842277" fill="#DD3355" r="5"/>
<circle cx="1656.0000000000105" cy="-170.373547296953" fill="#DD3355" r="5"/>
<circle cx="1660.8000000000106" cy="-170.44079758344049" fill="#DD3355" r="5"/>
<circle cx="1665.6000000000106" cy="-170.4887480958507" fill="#DD3355" r="5"/>
<circle cx="1670.400000000011" cy="-170.51608598310577" fill="#DD3355" r="5"/>
<circle cx="1675.200000000011" cy="-170.52234675081556" fill="#DD3355" r="5"/>
<circle cx="1680.000000000011" cy="-170.50790743141303" fill="#DD3355" r="5"/>
<circle cx="1684.8000000000109" cy="-170.4739469061982" fill="#DD3355" r="5"/>
<circle cx="1689.6000000000108" cy="-170.42237590623006" fill="#DD3355" r="5"/>
<circle cx="1694.4000000000112" cy="-170.35574033922825" fill="#DD3355" r="5"/>
<circle cx="1699.2000000000112" cy="-170.27710252752152" fill="#DD3355" r="5"/>
<circle cx="1704.0000000000114" cy="-170.18990567399496" fill="#DD3355" r="5"/>
<circle cx="1708.8000000000113" cy="-170.0978273743853" fill="#DD3355" r="5"/>
<circle cx="1713.6000000000113" cy="-170.0046282518519" fill="#DD3355" r="5"/>
<circle cx="1718.4000000000117" cy="-169.91400180567587" fill="#DD3355" r="5"/>
<circle cx="1723.2000000000116" cy="-169.82943133554355" fill="#DD3355" r="5"/>
<circle cx="1728.0000000000116" cy="-169.75405934719765" fill="#DD3355" r="5"/>
<circle cx="1732.8000000000116" cy="-169.690574202591" fill="#DD3355" r="5"/>
<circle cx="1737.6000000000117" cy="-169.64111795737097" fill="#DD3355" r="5"/>
<circle cx="1742.4000000000117" cy="-169.60721837808006" fill="#DD3355" r="5"/>
<circle cx="1747.200000000012" cy="-169.58974709430922" fill="#DD3355" r="5"/>
<circle cx="1752.000000000012" cy="-169.5889047573267" fill="#DD3355" r="5"/>
<circle cx="1756.800000000012" cy="-169.6042329900269" fill="#DD3355" r="5"/>
<circle cx="1761.600000000012" cy="-169.6346518668922" fill="#DD3355" r="5"/>
<circle cx="1766.400000000012" cy="-169.67852069733985" fill="#DD3355" r="5"/>
<circle cx="1771.2000000000123" cy="-169.73371903643138" fill="#DD3355" r="5"/>
<circle cx="1776.0000000000123" cy="-169.79774414345633" fill="#DD3355" r="5"/>
<circle cx="1780.8000000000125" cy="-169.86782057605976" fill="#DD3355" r="5"/>
<circle cx="1785.6000000000124" cy="-169.9410172558932" fill="#DD3355" r="5"/>
<circle cx="1790.4000000000124" cy="-170.01436718161645" fill="#DD3355" r="5"/>
<circle cx="1795.2000000000123" cy="-170.08498502066635" fill="#DD3355" r="5"/>
<circle cx="1800.0000000000127" cy="-170.15017801856743" fill="#DD3355" r="5"/>
<circle cx="1804.8000000000127" cy="-170.20754606370838" fill="#DD3355" r="5"/>
<circle cx="1809.6000000000126" cy="-170.25506730126418" fill="#DD3355" r="5"/>
<circle cx="1814.4000000000128" cy="-170.29116636220033" fill="#DD3355" r="5"/>
<circle cx="1819.2000000000128" cy="-170.3147630401397" fill="#DD3355" r="5"/>
<circle cx="1824.0000000000132" cy="-170.32530008200382" fill="#DD3355" r="5"/>
<circle cx="1828.8000000000131" cy="-170.32274961839397" fill="#DD3355" r="5"/>
<circle cx="1833.600000000013" cy="-170.3075986124982" fill="#DD3355" r="5"/>
<circle cx="1838.400000000013" cy="-170.28081451902773" fill="#DD3355" r="5"/>
<circle cx="1843.200000000013" cy="-170.2437930868949" fill="#DD3355" r="5"/>
<circle cx="1848.0000000000134" cy="-170.19829088343317" fill="#DD3355" r="5"/>
<circle cx="1852.8000000000134" cy="-170.14634564204576" fill="#DD3355" r="5"/>
<circle cx="1857.6000000000136" cy="-170.09018792339643" fill="#DD3355" r="5"/>
<circle cx="1862.4000000000135" cy="-170.03214780622818" fill="#DD3355" r="5"/>
<circle cx="1867.2000000000135" cy="-169.97456043370372" fill="#DD3355" r="5"/>
<circle cx="1872.0000000000139" cy="-169.91967415936696" fill="#DD3355" r="5"/>
<circle cx="1876.8000000000138" cy="-169.86956480042724" fill="#DD3355" r="5"/>
<circle cx="1881.6000000000138" cy="-169.82605921025853" fill="#DD3355" r="5"/>
<circle cx="1886.4000000000137" cy="-169.7906708901638" fill="#DD3355" r="5"/>
<circle cx="1891.200000000014" cy="-169.76454980747476" fill="#DD3355" r="5"/>
<circle cx="1896.0000000000139" cy="-169.74844797381604" fill="#DD3355" r="5"/>
<circle cx="1900.8000000000143" cy="-169.7427016716393" fill="#DD3355" r="5"/>
<circle cx="1905.6000000000142" cy="-169.74723053349715" fill="#DD3355" r="5"/>
<circle cx="1910.4000000000142" cy="-169.76155301224276" fill="#DD3355" r="5"/>
<circle cx="1915.2000000000141" cy="-169.7848171501465" fill="#DD3355" r="5"/>
<circle cx="1920.000000000014" cy="-169.81584498736746" fill="#DD3355" r="5"/>
<circle cx="1924.8000000000145" cy="-169.8531884617556" fill="#DD3355" r="5"/>
<circle cx="1929.6000000000145" cy="-169.8951942610988" fill="#DD3355" r="5"/>
<circle cx="1934.4000000000146" cy="-169.94007482066064" fill="#DD3355" r="5"/>
<circle cx="1939.2000000000146" cy="-169.98598250997895" fill="#DD3355" r="5"/>
<circle cx="1944.0000000000146" cy="-170.03108395525854" fill="#DD3355" r="5"/>
<circle cx="1948.8000000000145" cy="-170.07363163388712" fill="#DD3355" r="5"/>
<circle cx="1953.600000000015" cy="-170.1120299742885" fill="#DD3355" r="5"/>
<circle cx="1958.4000000000149" cy="-170.1448935195625" fill="#DD3355" r="5"/>
<circle cx="1963.2000000000148" cy="-170.17109513865245" fill="#DD3355" r="5"/>
<circle cx="1968.000000000015" cy="-170.1898026591044" fill="#DD3355" r="5"/>
<circle cx="1972.800000000015" cy="-170.2005028315903" fill="#DD3355" r="5"/>
<circle cx="1977.6000000000154" cy="-170.20301206180145" fill="#DD3355" r="5"/>
<circle cx="1982.4000000000153" cy="-170.1974738788783" fill="#DD3355" r="5"/>
<circle cx="1987.2000000000153" cy="-170.18434363105723" fill="#DD3355" r="5"/>
<circle cx="1992.0000000000152" cy="-170.1643613861233" fill="#DD3355" r="5"/>
<circle cx="1996.8000000000152" cy="-170.138514447857" fill="#DD3355" r="5"/>
<circle cx="2001.6000000000156" cy="-170.10799127692732" fill="#DD3355" r="5"/>
<circle cx="2006.4000000000156" cy="-170.07412887117175" fill="#DD3355" r="5"/>
<circle cx="2011.2000000000157" cy="-170.03835585263803" fill="#DD3355" r="5"/>
<circle cx="2016.0000000000157" cy="-170.00213367208366" fill="#DD3355" r="5"/>
<circle cx="2020.8000000000156" cy="-169.9668982174627" fill="#DD3355" r="5"/>
<circle cx="2025.600000000016" cy="-169.93400419351013" fill="#DD3355" r="5"/>
<circle cx="2030.400000000016" cy="-169.90467430686965" fill="#DD3355" r="5"/>
<circle cx="2035.200000000016" cy="-169.87995514341938" fill="#DD3355" r="5"/>
<circle cx="2040.000000000016" cy="-169.8606812774877" fill="#DD3355" r="5"/>
<circle cx="2044.800000000016" cy="-169.84744875273236" fill="#DD3355" r="5"/>
<circle cx="2049.600000000016" cy="-169.8405987242844" fill="#DD3355" r="5"/>
<circle cx="2054.4000000000165" cy="-169.84021159485476" fill="#DD3355" r="5"/>
<circle cx="2059.200000000016" cy="-169.84611156122287" fill="#DD3355" r="5"/>
<circle cx="2064.0000000000164" cy="-169.8578810910874" fill="#DD3355" r="5"/>
<circle cx="2068.8000000000166" cy="-169.87488446841107" fill="#DD3355" r="5"/>
<circle cx="2073.6000000000163" cy="-169.89629920439128" fill="#DD3355" r="5"/>
<circle cx="2078.400000000017" cy="-169.921153864546" fill="#DD3355" r="5"/>
<circle cx="2083.2000000000166" cy="-169.9483706245523" fill="#DD3355" r="5"/>
<circle cx="2088.000000000017" cy="-169.97681073767438" fill="#DD3355" r="5"/>
<circle cx="2092.8000000000166" cy="-170.00532107349903" fill="#DD3355" r="5"/>
<circle cx="2097.6000000000167" cy="-170.03277981556883" fill="#DD3355" r="5"/>
<circle cx="2102.400000000017" cy="-170.0581396107495" fill="#DD3355" r="5"/>
<circle cx="2107.200000000017" cy="-170.0804664885852" fill="#DD3355" r="5"/>
<circle cx="2112.0000000000173" cy="-170.0989732054967" fill="#DD3355" r="5"/>
<circle cx="2116.800000000017" cy="-170.1130458144083" fill="#DD3355" r="5"/>
<circle cx="2121.600000000017" cy="-170.1222626658999" fill="#DD3355" r="5"/>
<circle cx="2126.400000000017" cy="-170.1264052790633" fill="#DD3355" r="5"/>
<circle cx="2131.2000000000176" cy="-170.12546092005914" fill="#DD3355" r="5"/>
<circle cx="2136.0000000000173" cy="-170.11961702130554" fill="#DD3355" r="5"/>
<circle cx="2140.8000000000175" cy="-170.10924790313334" fill="#DD3355" r="5"/>
<circle cx="2145.6000000000176" cy="-170.09489455276702" fill="#DD3355" r="5"/>
<circle cx="2150.4000000000174" cy="-170.07723844355812" fill="#DD3355" r="5"/>
<circle cx="2155.200000000018" cy="-170.05707063091842" fill="#DD3355" r="5"/>
<circle cx="2160.0000000000177" cy="-170.0352574277923" fill="#DD3355" r="5"/>
<circle cx="2164.800000000018" cy="-170.012704178012" fill="#DD3355" r="5"/>
<circle cx="2169.6000000000176" cy="-169.9903185215254" fill="#DD3355" r="5"/>
<circle cx="2174.400000000018" cy="-169.96897470028674" fill="#DD3355" r="5"/>
<circle cx="2179.200000000018" cy="-169.94948019620443" fill="#DD3355" r="5"/>
<circle cx="2184.000000000018" cy="-169.93254599550409" fill="#DD3355" r="5"/>
<circle cx="2188.8000000000184" cy="-169.9187615174693" fill="#DD3355" r="5"/>
<circle cx="2193.600000000018" cy="-169.9085750558223" fill="#DD3355" r="5"/>
<circle cx="2198.4000000000183" cy="-169.9022803439134" fill="#DD3355" r="5"/>
<circle cx="2203.200000000018" cy="-169.90000958689143" fill="#DD3355" r="5"/>
<circle cx="2208.0000000000186" cy="-169.9017330423039" fill="#DD3355" r="5"/>
<circle cx="2212.8000000000184" cy="-169.9072649746575" fill="#DD3355" r="5"/>
<circle cx="2217.6000000000186" cy="-169.91627556182445" fill="#DD3355" r="5"/>
<circle cx="2222.4000000000187" cy="-169.92830810401438" fill="#DD3355" r="5"/>
<circle cx="2227.2000000000185" cy="-169.94280071539384" fill="#DD3355" r="5"/>
<circle cx="2232.000000000019" cy="-169.95911149257668" fill="#DD3355" r="5"/>
<circle cx="2236.800000000019" cy="-169.97654610328232" fill="#DD3355" r="5"/>
<circle cx="2241.600000000019" cy="-169.99438658742352" fill="#DD3355" r="5"/>
<circle cx="2246.4000000000187" cy="-170.01192027078534" fill="#DD3355" r="5"/>
<circle cx="2251.200000000019" cy="-170.02846759174014" fill="#DD3355" r="5"/>
<circle cx="2256.000000000019" cy="-170.0434078043874" fill="#DD3355" r="5"/>
<circle cx="2260.8000000000193" cy="-170.05620163682275" fill="#DD3355" r="5"/>
<circle cx="2265.6000000000195" cy="-170.06641004651584" fill="#DD3355" r="5"/>
<circle cx="2270.400000000019" cy="-170.07370851266447" fill="#DD3355" r="5"/>
<circle cx="2275.2000000000194" cy="-170.07789639084515" fill="#DD3355" r="5"/>
<circle cx="2280.000000000019" cy="-170.07890113488355" fill="#DD3355" r="5"/>
<circle cx="2284.8000000000197" cy="-170.07677735995003" fill="#DD3355" r="5"/>
<circle cx="2289.6000000000195" cy="-170.0717009376339" fill="#DD3355" r="5"/>
<circle cx="2294.4000000000196" cy="-170.0639585084798" fill="#DD3355" r="5"/>
<circle cx="2299.20000000002" cy="-170.05393294608538" fill="#DD3355" r="5"/>
<circle cx="2304.0000000000196" cy="-170.04208547853852" fill="#DD3355" r="5"/>
<circle cx="2308.80000000002" cy="-170.0289352607437" fill="#DD3355" r="5"/>
<circle cx="2313.60000000002" cy="-170.01503726310634" fill="#DD3355" r="5"/>
<circle cx="2318.40000000002" cy="-170.0009594276371" fill="#DD3355" r="5"/>
<circle cx="2323.20000000002" cy="-169.98725997635324" fill="#DD3355" r="5"/>
<circle cx="2328.00000000002" cy="-169.9744657658821" fill="#DD3355" r="5"/>
<circle cx="2332.80000000002" cy="-169.9630525315856" fill="#DD3355" r="5"/>
<circle cx="2337.6000000000204" cy="-169.95342771482183" fill="#DD3355" r="5"/>
<circle cx="2342.4000000000206" cy="-169.9459164695669" fill="#DD3355" r="5"/>
<circle cx="2347.2000000000203" cy="-169.94075133410186" fill="#DD3355" r="5"/>
<circle cx="2352.0000000000205" cy="-169.93806582991346" fill="#DD3355" r="5"/>
<circle cx="2356.80000000002" cy="-169.9378921449895" fill="#DD3355" r="5"/>
<circle cx="2361.600000000021" cy="-169.94016286545119" fill="#DD3355" r="5"/>
<circle cx="2366.4000000000206" cy="-169.94471656680858" fill="#DD3355" r="5"/>
<circle cx="2371.2000000000207" cy="-169.95130692957642" fill="#DD3355" r="5"/>
<circle cx="2376.000000000021" cy="-169.95961492773714" fill="#DD3355" r="5"/>
<circle cx="2380.8000000000206" cy="-169.9692635033392" fill="#DD3355" r="5"/>
<circle cx="2385.6000000000213" cy="-169.97983408766342" fill="#DD3355" r="5"/>
<circle cx="2390.400000000021" cy="-169.9908842755077" fill="#DD3355" r="5"/>
<circle cx="2395.200000000021" cy="-170.00196590034327" fill="#DD3355" r="5"/>
</g>
</g>
<g>
<g>
<line stroke="black" stroke-width="1" x1="0" x2="0" y1="0" y2="10"/>
<line stroke="black" stroke-width="1" x1="96" x2="96" y1="0" y2="10"/>
<line stroke="black" stroke-width="1" x1="192" x2="192" y1="0" y2="10"/>
<line stroke="black" stroke-width="1" x1="288" x2="288" y1="0" y2="10"/>
<line stroke="black" stroke-width="1" x1="384" x2="384" y1="0" y2="10"/>
<line stroke="black" stroke-width="1" x1="480" x2="480" y1="0" y2="10"/>
</g>
<line stroke="black" stroke-width="1" x1="0" x2="480" y1="0" y2="0"/>
<g>
<text font-size="12" text-anchor="middle" x="0" y="20">
0
</text>
<text font-size="12" text-anchor="middle" x="96" y="20">
2
</text>
<text font-size="12" text-anchor="middle" x="192" y="20">
4
</text>
<text font-size="12" text-anchor="middle" x="288" y="20">
6
</text>
<text font-size="12" text-anchor="middle" x="384" y="20">
8
</text>
<text font-size="12" text-anchor="middle" x="480" y="20">
10
</text>
</g>
<text font-size="12" text-anchor="middle" x="240" y="30">
Some varying variable
</text>
</g>
<g>
<g>
<line stroke="black" stroke-width="1" x1="0" x2="-10" y1="-0" y2="-0"/>
<line stroke="black" stroke-width="1" x1="0" x2="-10" y1="-85" y2="-85"/>
<line stroke="black" stroke-width="1" x1="0" x2="-10" y1="-170" y2="-170"/>
<line stroke="black" stroke-width="1" x1="0" x2="-10" y1="-255" y2="-255"/>
<line stroke="black" stroke-width="1" x1="0" x2="-10" y1="-340" y2="-340"/>
</g>
<line stroke="black" stroke-width="1" x1="0" x2="0" y1="0" y2="-340"/>
<g>
<text dominant-baseline="middle" font-size="12" text-anchor="end" x="-15" y="-0">
-2
</text>
<text dominant-baseline="middle" font-size="12" text-anchor="end" x="-15" y="-85">
-1
</text>
<text dominant-baseline="middle" font-size="12" text-anchor="end" x="-15" y="-170">
0
</text>
<text dominant-baseline="middle" font-size="12" text-anchor="end" x="-15" y="-255">
1
</text>
<text dominant-baseline="middle" font-size="12" text-anchor="end" x="-15" y="-340">
2
</text>
</g>
<text font-size="12" text-anchor="middle" transform="rotate(-90 -24 -170)" x="-24" y="-182">
The response of something
</text>
</g>
</g>
</svg>