<svg viewBox="0 0 600 400" xmlns="http://www.w3.org/2000/svg">
<g transform="translate(72, 364)">
<g>
<g>
<circle cx="0" cy="-255" fill="#DD3355" r="5"/>
<circle cx="4.8" cy="-254.57535404863114" fill="#DD3355" r="5"/>
<circle cx="9.6" cy="-253.30565911647886" fill="#DD3355" r="5"/>
<circle cx="14.400000000000002" cy="-251.20360157558673" fill="#DD3355" r="5"/>
<circle cx="19.2" cy="-248.2901844896395" fill="#DD3355" r="5"/>
<circle cx="24" cy="-244.59451775964334" fill="#DD3355" r="5"/>
<circle cx="28.8" cy="-240.15352726645594" fill="#DD3355" r="5"/>
<circle cx="33.6" cy="-235.01158591788192" fill="#DD3355" r="5"/>
<circle cx="38.39999999999999" cy="-229.22007029275707" fill="#DD3355" r="5"/>
<circle cx="43.199999999999996" cy="-222.8368473005792" fill="#DD3355" r="5"/>
<circle cx="47.99999999999999" cy="-215.9256959954723" fill="#DD3355" r="5"/>
<circle cx="52.79999999999999" cy="-208.55567031677953" fill="#DD3355" r="5"/>
<circle cx="57.6" cy="-200.8004091250138" fill="#DD3355" r="5"/>
<circle cx="62.4" cy="-192.73740042682556" fill="#DD3355" r="5"/>
<circle cx="67.20000000000002" cy="-184.44720714038888" fill="#DD3355" r="5"/>
<circle cx="72.00000000000001" cy="-176.0126621366453" fill="#DD3355" r="5"/>
<circle cx="76.80000000000001" cy="-167.5180406021824" fill="#DD3355" r="5"/>
<circle cx="81.60000000000002" cy="-159.04821798492574" fill="#DD3355" r="5"/>
<circle cx="86.40000000000002" cy="-150.68782195229812" fill="#DD3355" r="5"/>
<circle cx="91.20000000000002" cy="-142.52038681757887" fill="#DD3355" r="5"/>
<circle cx="96.00000000000003" cy="-134.62751889220607" fill="#DD3355" r="5"/>
<circle cx="100.80000000000003" cy="-127.0880811071557" fill="#DD3355" r="5"/>
<circle cx="105.60000000000002" cy="-119.97740503208335" fill="#DD3355" r="5"/>
<circle cx="110.40000000000005" cy="-113.36653819143898" fill="#DD3355" r="5"/>
<circle cx="115.20000000000005" cy="-107.32153418114346" fill="#DD3355" r="5"/>
<circle cx="120.00000000000004" cy="-101.90279268287513" fill="#DD3355" r="5"/>
<circle cx="124.80000000000004" cy="-97.16445597037757" fill="#DD3355" r="5"/>
<circle cx="129.60000000000005" cy="-93.15386793770443" fill="#DD3355" r="5"/>
<circle cx="134.40000000000003" cy="-89.9111010546358" fill="#DD3355" r="5"/>
<circle cx="139.20000000000007" cy="-87.46855597579592" fill="#DD3355" r="5"/>
<circle cx="144.00000000000006" cy="-85.8506378040764" fill="#DD3355" r="5"/>
<circle cx="148.80000000000007" cy="-85.0735122430132" fill="#DD3355" r="5"/>
<circle cx="153.60000000000008" cy="-85.14494407425153" fill="#DD3355" r="5"/>
<circle cx="158.40000000000006" cy="-86.06421957541777" fill="#DD3355" r="5"/>
<circle cx="163.2000000000001" cy="-87.82215364915923" fill="#DD3355" r="5"/>
<circle cx="168.00000000000009" cy="-90.40118159909102" fill="#DD3355" r="5"/>
<circle cx="172.8000000000001" cy="-93.7755346305537" fill="#DD3355" r="5"/>
<circle cx="177.60000000000008" cy="-97.9114973229077" fill="#DD3355" r="5"/>
<circle cx="182.4000000000001" cy="-102.76774450484244" fill="#DD3355" r="5"/>
<circle cx="187.2000000000001" cy="-108.29575415968509" fill="#DD3355" r="5"/>
<circle cx="192.00000000000009" cy="-114.44029224223287" fill="#DD3355" r="5"/>
<circle cx="196.80000000000007" cy="-121.13996455905556" fill="#DD3355" r="5"/>
<circle cx="201.60000000000005" cy="-128.32783019896962" fill="#DD3355" r="5"/>
<circle cx="206.40000000000003" cy="-135.9320703848619" fill="#DD3355" r="5"/>
<circle cx="211.2" cy="-143.8767060632046" fill="#DD3355" r="5"/>
<circle cx="216" cy="-152.0823570601347" fill="#DD3355" r="5"/>
<circle cx="220.8" cy="-160.46703522249317" fill="#DD3355" r="5"/>
<circle cx="225.59999999999997" cy="-168.9469636129362" fill="#DD3355" r="5"/>
<circle cx="230.39999999999995" cy="-177.43741359583385" fill="#DD3355" r="5"/>
<circle cx="235.1999999999999" cy="-185.85355139984935" fill="#DD3355" r="5"/>
<circle cx="239.99999999999991" cy="-194.11128575937735" fill="#DD3355" r="5"/>
<circle cx="244.7999999999999" cy="-202.12810812227156" fill="#DD3355" r="5"/>
<circle cx="249.59999999999985" cy="-209.82391704989675" fill="#DD3355" r="5"/>
<circle cx="254.39999999999986" cy="-217.12181856330673" fill="#DD3355" r="5"/>
<circle cx="259.1999999999999" cy="-223.94889444139903" fill="#DD3355" r="5"/>
<circle cx="263.99999999999983" cy="-230.2369307987927" fill="#DD3355" r="5"/>
<circle cx="268.79999999999984" cy="-235.92309965485245" fill="#DD3355" r="5"/>
<circle cx="273.5999999999998" cy="-240.95058669004635" fill="#DD3355" r="5"/>
<circle cx="278.39999999999975" cy="-245.2691589158406" fill="#DD3355" r="5"/>
<circle cx="283.19999999999976" cy="-248.83566658614012" fill="#DD3355" r="5"/>
<circle cx="287.9999999999997" cy="-251.6144743353406" fill="#DD3355" r="5"/>
<circle cx="292.7999999999997" cy="-253.57781723515984" fill="#DD3355" r="5"/>
<circle cx="297.59999999999974" cy="-254.7060782125677" fill="#DD3355" r="5"/>
<circle cx="302.3999999999997" cy="-254.9879840569248" fill="#DD3355" r="5"/>
<circle cx="307.1999999999997" cy="-254.42071805813794" fill="#DD3355" r="5"/>
<circle cx="311.99999999999966" cy="-253.00994814955584" fill="#DD3355" r="5"/>
<circle cx="316.7999999999996" cy="-250.76977027796678" fill="#DD3355" r="5"/>
<circle cx="321.5999999999996" cy="-247.7225675622007" fill="#DD3355" r="5"/>
<circle cx="326.3999999999996" cy="-243.89878664247553" fill="#DD3355" r="5"/>
<circle cx="331.1999999999996" cy="-239.33663347468936" fill="#DD3355" r="5"/>
<circle cx="335.9999999999996" cy="-234.0816915850688" fill="#DD3355" r="5"/>
<circle cx="340.79999999999956" cy="-228.1864666158729" fill="#DD3355" r="5"/>
<circle cx="345.59999999999957" cy="-221.70986170628726" fill="#DD3355" r="5"/>
<circle cx="350.3999999999995" cy="-214.71658895168434" fill="#DD3355" r="5"/>
<circle cx="355.1999999999995" cy="-207.27652282170817" fill="#DD3355" r="5"/>
<circle cx="359.9999999999995" cy="-199.46400199765247" fill="#DD3355" r="5"/>
<circle cx="364.79999999999944" cy="-191.35708660501658" fill="#DD3355" r="5"/>
<circle cx="369.59999999999945" cy="-183.03677826161578" fill="#DD3355" r="5"/>
<circle cx="374.39999999999947" cy="-174.5862107387475" fill="#DD3355" r="5"/>
<circle cx="379.1999999999994" cy="-166.0898193140617" fill="#DD3355" r="5"/>
<circle cx="383.99999999999943" cy="-157.6324971256502" fill="#DD3355" r="5"/>
<circle cx="388.7999999999994" cy="-149.29874693828685" fill="#DD3355" r="5"/>
<circle cx="393.59999999999934" cy="-141.17183682797696" fill="#DD3355" r="5"/>
<circle cx="398.39999999999935" cy="-133.3329681943883" fill="#DD3355" r="5"/>
<circle cx="403.1999999999993" cy="-125.86046442143557" fill="#DD3355" r="5"/>
<circle cx="407.9999999999993" cy="-118.82898829664373" fill="#DD3355" r="5"/>
<circle cx="412.7999999999993" cy="-112.30879600598168" fill="#DD3355" r="5"/>
<circle cx="417.5999999999993" cy="-106.36503515582602" fill="#DD3355" r="5"/>
<circle cx="422.3999999999993" cy="-101.05709383985364" fill="#DD3355" r="5"/>
<circle cx="427.19999999999925" cy="-96.43800725308104" fill="#DD3355" r="5"/>
<circle cx="431.99999999999926" cy="-92.55392778181009" fill="#DD3355" r="5"/>
<circle cx="436.79999999999916" cy="-89.44366386422253" fill="#DD3355" r="5"/>
<circle cx="441.59999999999917" cy="-87.13829222921007" fill="#DD3355" r="5"/>
<circle cx="446.3999999999992" cy="-85.66084738790207" fill="#DD3355" r="5"/>
<circle cx="451.1999999999992" cy="-85.02609148050735" fill="#DD3355" r="5"/>
<circle cx="455.9999999999992" cy="-85.24036677829989" fill="#DD3355" r="5"/>
<circle cx="460.7999999999991" cy="-86.30153231285843" fill="#DD3355" r="5"/>
<circle cx="465.5999999999991" cy="-88.19898526990644" fill="#DD3355" r="5"/>
<circle cx="470.39999999999907" cy="-90.91376692649759" fill="#DD3355" r="5"/>
<circle cx="475.1999999999991" cy="-94.41875208199396" fill="#DD3355" r="5"/>
<circle cx="479.9999999999991" cy="-98.67892008218351" fill="#DD3355" r="5"/>
<circle cx="484.7999999999991" cy="-103.65170473700762" fill="#DD3355" r="5"/>
<circle cx="489.599999999999" cy="-109.28741962605316" fill="#DD3355" r="5"/>
<circle cx="494.399999999999" cy="-115.52975454905942" fill="#DD3355" r="5"/>
<circle cx="499.199999999999" cy="-122.31633815887551" fill="#DD3355" r="5"/>
<circle cx="503.999999999999" cy="-129.57936115539601" fill="#DD3355" r="5"/>
<circle cx="508.799999999999" cy="-137.2462538137426" fill="#DD3355" r="5"/>
<circle cx="513.5999999999989" cy="-145.24041107701808" fill="#DD3355" r="5"/>
<circle cx="518.399999999999" cy="-153.48195796862345" fill="#DD3355" r="5"/>
<circle cx="523.1999999999989" cy="-161.88854767744672" fill="#DD3355" r="5"/>
<circle cx="527.9999999999989" cy="-170.37618433739576" fill="#DD3355" r="5"/>
<circle cx="532.7999999999989" cy="-178.86006228878867" fill="#DD3355" r="5"/>
<circle cx="537.5999999999988" cy="-187.25541342323413" fill="#DD3355" r="5"/>
<circle cx="542.3999999999988" cy="-195.47835416970688" fill="#DD3355" r="5"/>
<circle cx="547.1999999999988" cy="-203.44672362004022" fill="#DD3355" r="5"/>
<circle cx="551.9999999999989" cy="-211.08090446709005" fill="#DD3355" r="5"/>
<circle cx="556.7999999999988" cy="-218.30461849668288" fill="#DD3355" r="5"/>
<circle cx="561.5999999999988" cy="-225.0456887458172" fill="#DD3355" r="5"/>
<circle cx="566.3999999999987" cy="-231.2367606688029" fill="#DD3355" r="5"/>
<circle cx="571.1999999999987" cy="-236.81597512159857" fill="#DD3355" r="5"/>
<circle cx="575.9999999999987" cy="-241.7275864374276" fill="#DD3355" r="5"/>
<circle cx="580.7999999999987" cy="-245.92251941945142" fill="#DD3355" r="5"/>
<circle cx="585.5999999999988" cy="-249.35885968383423" fill="#DD3355" r="5"/>
<circle cx="590.3999999999986" cy="-252.00227245442255" fill="#DD3355" r="5"/>
<circle cx="595.1999999999987" cy="-253.82634562459805" fill="#DD3355" r="5"/>
<circle cx="599.9999999999986" cy="-254.81285365841777" fill="#DD3355" r="5"/>
<circle cx="604.7999999999986" cy="-254.95193969402666" fill="#DD3355" r="5"/>
<circle cx="609.5999999999987" cy="-254.24221403003438" fill="#DD3355" r="5"/>
<circle cx="614.3999999999985" cy="-252.69076801020412" fill="#DD3355" r="5"/>
<circle cx="619.1999999999986" cy="-250.31310316948517" fill="#DD3355" r="5"/>
<circle cx="623.9999999999985" cy="-247.13297635025629" fill="#DD3355" r="5"/>
<circle cx="628.7999999999986" cy="-243.1821623271127" fill="#DD3355" r="5"/>
<circle cx="633.5999999999985" cy="-238.5001363294201" fill="#DD3355" r="5"/>
<circle cx="638.3999999999985" cy="-233.13367961304368" fill="#DD3355" r="5"/>
<circle cx="643.1999999999985" cy="-227.13641203953674" fill="#DD3355" r="5"/>
<circle cx="647.9999999999984" cy="-220.56825632408356" fill="#DD3355" r="5"/>
<circle cx="652.7999999999985" cy="-213.4948393075076" fill="#DD3355" r="5"/>
<circle cx="657.5999999999984" cy="-205.98683623452823" fill="#DD3355" r="5"/>
<circle cx="662.3999999999985" cy="-198.11926458999451" fill="#DD3355" r="5"/>
<circle cx="667.1999999999983" cy="-189.97073454887322" fill="#DD3355" r="5"/>
<circle cx="671.9999999999984" cy="-181.6226635293617" fill="#DD3355" r="5"/>
<circle cx="676.7999999999984" cy="-173.15846269727925" fill="#DD3355" r="5"/>
<circle cx="681.5999999999983" cy="-164.66270354650365" fill="#DD3355" r="5"/>
<circle cx="686.3999999999984" cy="-156.22027289936227" fill="#DD3355" r="5"/>
<circle cx="691.1999999999982" cy="-147.91552473263292" fill="#DD3355" r="5"/>
<circle cx="695.9999999999983" cy="-139.83143734317545" fill="#DD3355" r="5"/>
<circle cx="700.7999999999982" cy="-132.04878425981346" fill="#DD3355" r="5"/>
<circle cx="705.5999999999983" cy="-124.64532717886763" fill="#DD3355" r="5"/>
<circle cx="710.3999999999983" cy="-117.69503899614568" fill="#DD3355" r="5"/>
<circle cx="715.1999999999982" cy="-111.26736469388527" fill="#DD3355" r="5"/>
<circle cx="719.9999999999982" cy="-105.4265274691233" fill="#DD3355" r="5"/>
<circle cx="724.7999999999981" cy="-100.23088703673578" fill="#DD3355" r="5"/>
<circle cx="729.5999999999982" cy="-95.73235651824884" fill="#DD3355" r="5"/>
<circle cx="734.3999999999982" cy="-91.97588374356994" fill="#DD3355" r="5"/>
<circle cx="739.1999999999982" cy="-88.99900214720884" fill="#DD3355" r="5"/>
<circle cx="743.9999999999981" cy="-86.83145574635232" fill="#DD3355" r="5"/>
<circle cx="748.7999999999981" cy="-85.49490194828707" fill="#DD3355" r="5"/>
<circle cx="753.5999999999981" cy="-85.00269515703245" fill="#DD3355" r="5"/>
<circle cx="758.399999999998" cy="-85.35975333867427" fill="#DD3355" r="5"/>
<circle cx="763.1999999999981" cy="-86.56250888651864" fill="#DD3355" r="5"/>
<circle cx="767.999999999998" cy="-88.59894426474634" fill="#DD3355" r="5"/>
<circle cx="772.799999999998" cy="-91.44871208427146" fill="#DD3355" r="5"/>
<circle cx="777.5999999999981" cy="-95.08333840776702" fill="#DD3355" r="5"/>
<circle cx="782.3999999999982" cy="-99.46650725003875" fill="#DD3355" r="5"/>
<circle cx="787.1999999999982" cy="-104.55442343644351" fill="#DD3355" r="5"/>
<circle cx="791.9999999999983" cy="-110.29625019024942" fill="#DD3355" r="5"/>
<circle cx="796.7999999999984" cy="-116.63461707646586" fill="#DD3355" r="5"/>
<circle cx="801.5999999999984" cy="-123.50619322825882" fill="#DD3355" r="5"/>
<circle cx="806.3999999999985" cy="-130.84232012802906" fill="#DD3355" r="5"/>
<circle cx="811.1999999999986" cy="-138.5696976206487" fill="#DD3355" r="5"/>
<circle cx="815.9999999999986" cy="-146.611116304488" fill="#DD3355" r="5"/>
<circle cx="820.7999999999987" cy="-154.88622898242224" fill="#DD3355" r="5"/>
<circle cx="825.5999999999988" cy="-163.3123534645815" fill="#DD3355" r="5"/>
<circle cx="830.399999999999" cy="-171.80529870105045" fill="#DD3355" r="5"/>
<circle cx="835.1999999999989" cy="-180.28020599368332" fill="#DD3355" r="5"/>
<circle cx="839.9999999999989" cy="-188.65239686614103" fill="#DD3355" r="5"/>
<circle cx="844.799999999999" cy="-196.83821915313277" fill="#DD3355" r="5"/>
<circle cx="849.5999999999991" cy="-204.75588281946122" fill="#DD3355" r="5"/>
<circle cx="854.3999999999993" cy="-212.32627719678845" fill="#DD3355" r="5"/>
<circle cx="859.1999999999992" cy="-219.47376140312588" fill="#DD3355" r="5"/>
<circle cx="863.9999999999993" cy="-226.12692013947716" fill="#DD3355" r="5"/>
<circle cx="868.7999999999995" cy="-232.21927724303012" fill="#DD3355" r="5"/>
<circle cx="873.5999999999995" cy="-237.68995989543686" fill="#DD3355" r="5"/>
<circle cx="878.3999999999994" cy="-242.48430684398303" fill="#DD3355" r="5"/>
<circle cx="883.1999999999996" cy="-246.5544145587753" fill="#DD3355" r="5"/>
<circle cx="887.9999999999997" cy="-249.85961586895763" fill="#DD3355" r="5"/>
<circle cx="892.7999999999996" cy="-252.36688629575158" fill="#DD3355" r="5"/>
<circle cx="897.5999999999998" cy="-254.05117402159817" fill="#DD3355" r="5"/>
<circle cx="902.3999999999999" cy="-254.8956501998544" fill="#DD3355" r="5"/>
<circle cx="907.2" cy="-254.89187710408092" fill="#DD3355" r="5"/>
<circle cx="912" cy="-254.03989243368125" fill="#DD3355" r="5"/>
<circle cx="916.8" cy="-252.3482089381474" fill="#DD3355" r="5"/>
<circle cx="921.6000000000001" cy="-249.833729359626" fill="#DD3355" r="5"/>
<circle cx="926.4000000000002" cy="-246.5215775469453" fill="#DD3355" r="5"/>
<circle cx="931.2000000000004" cy="-242.44484742538765" fill="#DD3355" r="5"/>
<circle cx="936.0000000000003" cy="-237.64427233500945" fill="#DD3355" r="5"/>
<circle cx="940.8000000000004" cy="-232.16781803561616" fill="#DD3355" r="5"/>
<circle cx="945.6000000000006" cy="-226.0702034484563" fill="#DD3355" r="5"/>
<circle cx="950.4000000000005" cy="-219.41235392295732" fill="#DD3355" r="5"/>
<circle cx="955.2000000000005" cy="-212.26079249086692" fill="#DD3355" r="5"/>
<circle cx="960.0000000000007" cy="-204.68697519018394" fill="#DD3355" r="5"/>
<circle cx="964.8000000000008" cy="-196.7665771000574" fill="#DD3355" r="5"/>
<circle cx="969.6000000000007" cy="-188.57873622028933" fill="#DD3355" r="5"/>
<circle cx="974.4000000000009" cy="-180.20526275032682" fill="#DD3355" r="5"/>
<circle cx="979.200000000001" cy="-171.7298216685516" fill="#DD3355" r="5"/>
<circle cx="984.0000000000011" cy="-163.23709678094644" fill="#DD3355" r="5"/>
<circle cx="988.8000000000011" cy="-154.81194458314553" fill="#DD3355" r="5"/>
<circle cx="993.600000000001" cy="-146.53854641451198" fill="#DD3355" r="5"/>
<circle cx="998.4000000000012" cy="-138.49956733596056" fill="#DD3355" r="5"/>
<circle cx="1003.2000000000013" cy="-130.77533016730743" fill="#DD3355" r="5"/>
<circle cx="1008.0000000000015" cy="-123.44301293572127" fill="#DD3355" r="5"/>
<circle cx="1012.8000000000014" cy="-116.57587772948992" fill="#DD3355" r="5"/>
<circle cx="1017.6000000000015" cy="-110.24253869335638" fill="#DD3355" r="5"/>
<circle cx="1022.4000000000017" cy="-104.50627645741389" fill="#DD3355" r="5"/>
<circle cx="1027.2000000000016" cy="-99.4244058577663" fill="#DD3355" r="5"/>
<circle cx="1032.0000000000016" cy="-95.04770326557006" fill="#DD3355" r="5"/>
<circle cx="1036.8000000000018" cy="-91.41989924630656" fill="#DD3355" r="5"/>
<circle cx="1041.6000000000017" cy="-88.57724161845903" fill="#DD3355" r="5"/>
<circle cx="1046.400000000002" cy="-86.54813327729671" fill="#DD3355" r="5"/>
<circle cx="1051.200000000002" cy="-85.35284840258151" fill="#DD3355" r="5"/>
<circle cx="1056.000000000002" cy="-85.00332988657729" fill="#DD3355" r="5"/>
<circle cx="1060.8000000000022" cy="-85.50307000220337" fill="#DD3355" r="5"/>
<circle cx="1065.6000000000022" cy="-86.84707551153457" fill="#DD3355" r="5"/>
<circle cx="1070.4000000000021" cy="-89.02191755553461" fill="#DD3355" r="5"/>
<circle cx="1075.2000000000023" cy="-92.00586583085487" fill="#DD3355" r="5"/>
<circle cx="1080.0000000000023" cy="-95.76910571369245" fill="#DD3355" r="5"/>
<circle cx="1084.8000000000025" cy="-100.27403615482244" fill="#DD3355" r="5"/>
<circle cx="1089.6000000000026" cy="-105.47564537853287" fill="#DD3355" r="5"/>
<circle cx="1094.4000000000026" cy="-111.32196062506891" fill="#DD3355" r="5"/>
<circle cx="1099.2000000000028" cy="-117.75456744485174" fill="#DD3355" r="5"/>
<circle cx="1104.0000000000027" cy="-124.709193356785" fill="#DD3355" r="5"/>
<circle cx="1108.8000000000027" cy="-132.11635003753693" fill="#DD3355" r="5"/>
<circle cx="1113.6000000000029" cy="-139.90202762578267" fill="#DD3355" r="5"/>
<circle cx="1118.4000000000028" cy="-147.98843420423393" fill="#DD3355" r="5"/>
<circle cx="1123.200000000003" cy="-156.2947730709377" fill="#DD3355" r="5"/>
<circle cx="1128.0000000000032" cy="-164.738050033656" fill="#DD3355" r="5"/>
<circle cx="1132.8000000000031" cy="-173.23390266081628" fill="#DD3355" r="5"/>
<circle cx="1137.6000000000033" cy="-181.69744320227363" fill="#DD3355" r="5"/>
<circle cx="1142.4000000000033" cy="-190.04410676117598" fill="#DD3355" r="5"/>
<circle cx="1147.2000000000032" cy="-198.1904962304387" fill="#DD3355" r="5"/>
<circle cx="1152.0000000000034" cy="-206.05521558062918" fill="#DD3355" r="5"/>
<circle cx="1156.8000000000034" cy="-213.55968313282642" fill="#DD3355" r="5"/>
<circle cx="1161.6000000000035" cy="-220.62891672913787" fill="#DD3355" r="5"/>
<circle cx="1166.4000000000037" cy="-227.19228292473773" fill="#DD3355" r="5"/>
<circle cx="1171.2000000000037" cy="-233.1842027343924" fill="#DD3355" r="5"/>
<circle cx="1176.0000000000039" cy="-238.54480687613574" fill="#DD3355" r="5"/>
<circle cx="1180.8000000000038" cy="-243.22053396542722" fill="#DD3355" r="5"/>
<circle cx="1185.6000000000038" cy="-247.16466568285796" fill="#DD3355" r="5"/>
<circle cx="1190.400000000004" cy="-250.33779356817377" fill="#DD3355" r="5"/>
<circle cx="1195.200000000004" cy="-252.70821277655494" fill="#DD3355" r="5"/>
<circle cx="1200.000000000004" cy="-254.25223886287927" fill="#DD3355" r="5"/>
<circle cx="1204.8000000000043" cy="-254.9544444288231" fill="#DD3355" r="5"/>
<circle cx="1209.6000000000042" cy="-254.80781326832528" fill="#DD3355" r="5"/>
<circle cx="1214.4000000000044" cy="-253.81381047093845" fill="#DD3355" r="5"/>
<circle cx="1219.2000000000044" cy="-251.9823677846265" fill="#DD3355" r="5"/>
<circle cx="1224.0000000000043" cy="-249.33178437933023" fill="#DD3355" r="5"/>
<circle cx="1228.8000000000045" cy="-245.8885440085151" fill="#DD3355" r="5"/>
<circle cx="1233.6000000000045" cy="-241.68705039120786" fill="#DD3355" r="5"/>
<circle cx="1238.4000000000046" cy="-236.76928346292283" fill="#DD3355" r="5"/>
<circle cx="1243.2000000000048" cy="-231.18437992528368" fill="#DD3355" r="5"/>
<circle cx="1248.0000000000048" cy="-224.98814228814962" fill="#DD3355" r="5"/>
<circle cx="1252.800000000005" cy="-218.24248130953052" fill="#DD3355" r="5"/>
<circle cx="1257.600000000005" cy="-211.01479740411972" fill="#DD3355" r="5"/>
<circle cx="1262.4000000000049" cy="-203.37730720039053" fill="#DD3355" r="5"/>
<circle cx="1267.200000000005" cy="-195.4063219761036" fill="#DD3355" r="5"/>
<circle cx="1272.000000000005" cy="-187.18148518131792" fill="#DD3355" r="5"/>
<circle cx="1276.8000000000052" cy="-178.78497666709927" fill="#DD3355" r="5"/>
<circle cx="1281.6000000000054" cy="-170.3006915746546" fill="#DD3355" r="5"/>
<circle cx="1286.4000000000053" cy="-161.81340206913126" fill="#DD3355" r="5"/>
<circle cx="1291.2000000000055" cy="-153.40791034316456" fill="#DD3355" r="5"/>
<circle cx="1296.0000000000055" cy="-145.16820129171617" fill="#DD3355" r="5"/>
<circle cx="1300.8000000000054" cy="-137.1766033640304" fill="#DD3355" r="5"/>
<circle cx="1305.6000000000056" cy="-129.51296596306693" fill="#DD3355" r="5"/>
<circle cx="1310.4000000000055" cy="-122.2538616250432" fill="#DD3355" r="5"/>
<circle cx="1315.2000000000057" cy="-115.47182091986026" fill="#DD3355" r="5"/>
<circle cx="1320.000000000006" cy="-109.23460775596338" fill="#DD3355" r="5"/>
<circle cx="1324.8000000000059" cy="-103.6045423053691" fill="#DD3355" r="5"/>
<circle cx="1329.600000000006" cy="-98.63787832091822" fill="#DD3355" r="5"/>
<circle cx="1334.400000000006" cy="-94.38424106730692" fill="#DD3355" r="5"/>
<circle cx="1339.200000000006" cy="-90.88613148180221" fill="#DD3355" r="5"/>
<circle cx="1344.0000000000061" cy="-88.17850151890289" fill="#DD3355" r="5"/>
<circle cx="1348.800000000006" cy="-86.28840492199315" fill="#DD3355" r="5"/>
<circle cx="1353.6000000000063" cy="-85.23472691138005" fill="#DD3355" r="5"/>
<circle cx="1358.4000000000065" cy="-85.02799548950924" fill="#DD3355" r="5"/>
<circle cx="1363.2000000000064" cy="-85.67027624890252" fill="#DD3355" r="5"/>
<circle cx="1368.0000000000066" cy="-87.1551517328726" fill="#DD3355" r="5"/>
<circle cx="1372.8000000000065" cy="-89.46778555599235" fill="#DD3355" r="5"/>
<circle cx="1377.6000000000065" cy="-92.58507064386988" fill="#DD3355" r="5"/>
<circle cx="1382.4000000000067" cy="-96.47586011635917" fill="#DD3355" r="5"/>
<circle cx="1387.2000000000066" cy="-101.10127849063656" fill="#DD3355" r="5"/>
<circle cx="1392.0000000000068" cy="-106.41511011531719" fill="#DD3355" r="5"/>
<circle cx="1396.800000000007" cy="-112.36426094133225" fill="#DD3355" r="5"/>
<circle cx="1401.600000000007" cy="-118.8892890201462" fill="#DD3355" r="5"/>
<circle cx="1406.4000000000071" cy="-125.9249984280801" fill="#DD3355" r="5"/>
<circle cx="1411.200000000007" cy="-133.40109068242953" fill="#DD3355" r="5"/>
<circle cx="1416.000000000007" cy="-141.24286714132717" fill="#DD3355" r="5"/>
<circle cx="1420.8000000000072" cy="-149.37197536668597" fill="#DD3355" r="5"/>
<circle cx="1425.6000000000072" cy="-157.7071919953618" fill="#DD3355" r="5"/>
<circle cx="1430.4000000000074" cy="-166.16523429689434" fill="#DD3355" r="5"/>
<circle cx="1435.2000000000075" cy="-174.6615923081633" fill="#DD3355" r="5"/>
<circle cx="1440.0000000000075" cy="-183.1113732289451" fill="#DD3355" r="5"/>
<circle cx="1444.8000000000077" cy="-191.43014964329402" fill="#DD3355" r="5"/>
<circle cx="1449.6000000000076" cy="-199.53480308701668" fill="#DD3355" r="5"/>
<circle cx="1454.4000000000076" cy="-207.34435454271443" fill="#DD3355" r="5"/>
<circle cx="1459.2000000000078" cy="-214.78077355275863" fill="#DD3355" r="5"/>
<circle cx="1464.0000000000077" cy="-221.76975787528204" fill="#DD3355" r="5"/>
<circle cx="1468.800000000008" cy="-228.2414758891556" fill="#DD3355" r="5"/>
<circle cx="1473.600000000008" cy="-234.1312643274084" fill="#DD3355" r="5"/>
<circle cx="1478.400000000008" cy="-239.38027437103148" fill="#DD3355" r="5"/>
<circle cx="1483.2000000000082" cy="-243.93605964687032" fill="#DD3355" r="5"/>
<circle cx="1488.0000000000082" cy="-247.75310025446407" fill="#DD3355" r="5"/>
<circle cx="1492.8000000000081" cy="-250.79325758589763" fill="#DD3355" r="5"/>
<circle cx="1497.6000000000083" cy="-253.026155394217" fill="#DD3355" r="5"/>
<circle cx="1502.4000000000083" cy="-254.42948330282852" fill="#DD3355" r="5"/>
<circle cx="1507.2000000000085" cy="-254.98921972327497" fill="#DD3355" r="5"/>
<circle cx="1512.0000000000086" cy="-254.6997719543129" fill="#DD3355" r="5"/>
<circle cx="1516.8000000000086" cy="-253.56403206183893" fill="#DD3355" r="5"/>
<circle cx="1521.6000000000088" cy="-251.59334798337414" fill="#DD3355" r="5"/>
<circle cx="1526.4000000000087" cy="-248.8074101430818" fill="#DD3355" r="5"/>
<circle cx="1531.2000000000087" cy="-245.2340547111582" fill="#DD3355" r="5"/>
<circle cx="1536.0000000000089" cy="-240.90898547400826" fill="#DD3355" r="5"/>
<circle cx="1540.8000000000088" cy="-235.87541709352536" fill="#DD3355" r="5"/>
<circle cx="1545.600000000009" cy="-230.1836433210565" fill="#DD3355" r="5"/>
<circle cx="1550.4000000000092" cy="-223.89053447869486" fill="#DD3355" r="5"/>
<circle cx="1555.2000000000091" cy="-217.05896922978013" fill="#DD3355" r="5"/>
<circle cx="1560.0000000000093" cy="-209.75720631603753" fill="#DD3355" r="5"/>
<circle cx="1564.8000000000093" cy="-202.05820253877607" fill="#DD3355" r="5"/>
<circle cx="1569.6000000000092" cy="-194.03888379862377" fill="#DD3355" r="5"/>
<circle cx="1574.4000000000094" cy="-185.77937647606382" fill="#DD3355" r="5"/>
<circle cx="1579.2000000000094" cy="-177.36220683836916" fill="#DD3355" r="5"/>
<circle cx="1584.0000000000095" cy="-168.87147646741334" fill="#DD3355" r="5"/>
<circle cx="1588.8000000000097" cy="-160.39202192989896" fill="#DD3355" r="5"/>
<circle cx="1593.6000000000097" cy="-152.008567135186" fill="#DD3355" r="5"/>
<circle cx="1598.4000000000099" cy="-143.8048767903472" fill="#DD3355" r="5"/>
<circle cx="1603.2000000000098" cy="-135.86291945854668" fill="#DD3355" r="5"/>
<circle cx="1608.0000000000098" cy="-128.2620485493879" fill="#DD3355" r="5"/>
<circle cx="1612.80000000001" cy="-121.0782094537298" fill="#DD3355" r="5"/>
<circle cx="1617.60000000001" cy="-114.38318071764728" fill="#DD3355" r="5"/>
<circle cx="1622.40000000001" cy="-108.2438568556147" fill="#DD3355" r="5"/>
<circle cx="1627.2000000000103" cy="-102.72157996235866" fill="#DD3355" r="5"/>
<circle cx="1632.0000000000102" cy="-97.87152680317186" fill="#DD3355" r="5"/>
<circle cx="1636.8000000000104" cy="-93.74215750600794" fill="#DD3355" r="5"/>
<circle cx="1641.6000000000101" cy="-90.3747313639039" fill="#DD3355" r="5"/>
<circle cx="1646.4000000000106" cy="-87.80289458570093" fill="#DD3355" r="5"/>
<circle cx="1651.2000000000105" cy="-86.05234411417375" fill="#DD3355" r="5"/>
<circle cx="1656.0000000000105" cy="-85.14057087070252" fill="#DD3355" r="5"/>
<circle cx="1660.8000000000106" cy="-85.07668499197919" fill="#DD3355" r="5"/>
<circle cx="1665.6000000000106" cy="-85.86132480455102" fill="#DD3355" r="5"/>
<circle cx="1670.400000000011" cy="-87.48665044788324" fill="#DD3355" r="5"/>
<circle cx="1675.200000000011" cy="-89.93642220452337" fill="#DD3355" r="5"/>
<circle cx="1680.000000000011" cy="-93.18616276531858" fill="#DD3355" r="5"/>
<circle cx="1684.8000000000109" cy="-97.20340179601963" fill="#DD3355" r="5"/>
<circle cx="1689.6000000000108" cy="-101.9480003722876" fill="#DD3355" r="5"/>
<circle cx="1694.4000000000112" cy="-107.37255203357401" fill="#DD3355" r="5"/>
<circle cx="1699.2000000000112" cy="-113.42285645282635" fill="#DD3355" r="5"/>
<circle cx="1704.0000000000114" cy="-120.03846098824272" fill="#DD3355" r="5"/>
<circle cx="1708.8000000000113" cy="-127.15326470612402" fill="#DD3355" r="5"/>
<circle cx="1713.6000000000113" cy="-134.69617883961365" fill="#DD3355" r="5"/>
<circle cx="1718.4000000000117" cy="-142.59183708420886" fill="#DD3355" r="5"/>
<circle cx="1723.2000000000116" cy="-150.76134863291526" fill="#DD3355" r="5"/>
<circle cx="1728.0000000000116" cy="-159.12308642714925" fill="#DD3355" r="5"/>
<circle cx="1732.8000000000116" cy="-167.59350274758256" fill="#DD3355" r="5"/>
<circle cx="1737.6000000000117" cy="-176.08796399435963" fill="#DD3355" r="5"/>
<circle cx="1742.4000000000117" cy="-184.52159631342812" fill="#DD3355" r="5"/>
<circle cx="1747.200000000012" cy="-192.81013364142294" fill="#DD3355" r="5"/>
<circle cx="1752.000000000012" cy="-200.87075965446826" fill="#DD3355" r="5"/>
<circle cx="1756.800000000012" cy="-208.62293524169692" fill="#DD3355" r="5"/>
<circle cx="1761.600000000012" cy="-215.9892032276699" fill="#DD3355" r="5"/>
<circle cx="1766.400000000012" cy="-222.8959622972196" fill="#DD3355" r="5"/>
<circle cx="1771.2000000000123" cy="-229.2742023969811" fill="#DD3355" r="5"/>
<circle cx="1776.0000000000123" cy="-235.06019425983752" fill="#DD3355" r="5"/>
<circle cx="1780.8000000000125" cy="-240.19612616752775" fill="#DD3355" r="5"/>
<circle cx="1785.6000000000124" cy="-244.63068158609315" fill="#DD3355" r="5"/>
<circle cx="1790.4000000000124" cy="-248.31955190359005" fill="#DD3355" r="5"/>
<circle cx="1795.2000000000123" cy="-251.2258791470939" fill="#DD3355" r="5"/>
<circle cx="1800.0000000000127" cy="-253.32062425547875" fill="#DD3355" r="5"/>
<circle cx="1804.8000000000127" cy="-254.5828572282206" fill="#DD3355" r="5"/>
<circle cx="1809.6000000000126" cy="-254.99996625060308" fill="#DD3355" r="5"/>
<circle cx="1814.4000000000128" cy="-254.56778370831842" fill="#DD3355" r="5"/>
<circle cx="1819.2000000000128" cy="-253.29062782573962" fill="#DD3355" r="5"/>
<circle cx="1824.0000000000132" cy="-251.18125952199674" fill="#DD3355" r="5"/>
<circle cx="1828.8000000000131" cy="-248.26075490773763" fill="#DD3355" r="5"/>
<circle cx="1833.600000000013" cy="-244.5582946991519" fill="#DD3355" r="5"/>
<circle cx="1838.400000000013" cy="-240.11087265625113" fill="#DD3355" r="5"/>
<circle cx="1843.200000000013" cy="-234.96292594966187" fill="#DD3355" r="5"/>
<circle cx="1848.0000000000134" cy="-229.165891161137" fill="#DD3355" r="5"/>
<circle cx="1852.8000000000134" cy="-222.77769034607115" fill="#DD3355" r="5"/>
<circle cx="1857.6000000000136" cy="-215.862152295421" fill="#DD3355" r="5"/>
<circle cx="1862.4000000000135" cy="-208.48837477948084" fill="#DD3355" r="5"/>
<circle cx="1867.2000000000135" cy="-200.73003414572335" fill="#DD3355" r="5"/>
<circle cx="1872.0000000000139" cy="-192.66464916899236" fill="#DD3355" r="5"/>
<circle cx="1876.8000000000138" cy="-184.372806509502" fill="#DD3355" r="5"/>
<circle cx="1881.6000000000138" cy="-175.9373555178296" fill="#DD3355" r="5"/>
<circle cx="1886.4000000000137" cy="-167.44258043044096" fill="#DD3355" r="5"/>
<circle cx="1891.200000000014" cy="-158.9733582316519" fill="#DD3355" r="5"/>
<circle cx="1896.0000000000139" cy="-150.6143105958754" fill="#DD3355" r="5"/>
<circle cx="1900.8000000000143" cy="-142.44895836188243" fill="#DD3355" r="5"/>
<circle cx="1905.6000000000142" cy="-134.55888703353125" fill="#DD3355" r="5"/>
<circle cx="1910.4000000000142" cy="-127.0229315871359" fill="#DD3355" r="5"/>
<circle cx="1915.2000000000141" cy="-119.91638880167443" fill="#DD3355" r="5"/>
<circle cx="1920.000000000014" cy="-113.31026490361523" fill="#DD3355" r="5"/>
<circle cx="1924.8000000000145" cy="-107.27056609938104" fill="#DD3355" r="5"/>
<circle cx="1929.6000000000145" cy="-101.85763906304571" fill="#DD3355" r="5"/>
<circle cx="1934.4000000000146" cy="-97.12556797223051" fill="#DD3355" r="5"/>
<circle cx="1939.2000000000146" cy="-93.12163411689276" fill="#DD3355" r="5"/>
<circle cx="1944.0000000000146" cy="-89.88584348082156" fill="#DD3355" r="5"/>
<circle cx="1948.8000000000145" cy="-87.45052701473496" fill="#DD3355" r="5"/>
<circle cx="1953.600000000015" cy="-85.84001759593058" fill="#DD3355" r="5"/>
<circle cx="1958.4000000000149" cy="-85.07040690203578" fill="#DD3355" r="5"/>
<circle cx="1963.2000000000148" cy="-85.14938462813491" fill="#DD3355" r="5"/>
<circle cx="1968.000000000015" cy="-86.07616165503332" fill="#DD3355" r="5"/>
<circle cx="1972.800000000015" cy="-87.84147793305108" fill="#DD3355" r="5"/>
<circle cx="1977.6000000000154" cy="-90.42769500569253" fill="#DD3355" r="5"/>
<circle cx="1982.4000000000153" cy="-93.8089722477523" fill="#DD3355" r="5"/>
<circle cx="1987.2000000000153" cy="-97.95152505384533" fill="#DD3355" r="5"/>
<circle cx="1992.0000000000152" cy="-102.81396240538118" fill="#DD3355" r="5"/>
<circle cx="1996.8000000000152" cy="-108.34770043554487" fill="#DD3355" r="5"/>
<circle cx="2001.6000000000156" cy="-114.49744786309687" fill="#DD3355" r="5"/>
<circle cx="2006.4000000000156" cy="-121.20175844452291" fill="#DD3355" r="5"/>
<circle cx="2011.2000000000157" cy="-128.39364492455533" fill="#DD3355" r="5"/>
<circle cx="2016.0000000000157" cy="-136.00124835069366" fill="#DD3355" r="5"/>
<circle cx="2020.8000000000156" cy="-143.9485560641819" fill="#DD3355" r="5"/>
<circle cx="2025.600000000016" cy="-152.15616119351853" fill="#DD3355" r="5"/>
<circle cx="2030.400000000016" cy="-160.54205606178604" fill="#DD3355" r="5"/>
<circle cx="2035.200000000016" cy="-169.02245158004945" fill="#DD3355" r="5"/>
<circle cx="2040.000000000016" cy="-177.51261444156648" fill="#DD3355" r="5"/>
<circle cx="2044.800000000016" cy="-185.92771374338628" fill="#DD3355" r="5"/>
<circle cx="2049.600000000016" cy="-194.18366859231972" fill="#DD3355" r="5"/>
<circle cx="2054.4000000000165" cy="-202.19798821784102" fill="#DD3355" r="5"/>
<circle cx="2059.200000000016" cy="-209.89059618800704" fill="#DD3355" r="5"/>
<circle cx="2064.0000000000164" cy="-217.184630506725" fill="#DD3355" r="5"/>
<circle cx="2068.8000000000166" cy="-224.00721159479374" fill="#DD3355" r="5"/>
<circle cx="2073.6000000000163" cy="-230.29017047717628" fill="#DD3355" r="5"/>
<circle cx="2078.400000000017" cy="-235.97072990551467" fill="#DD3355" r="5"/>
<circle cx="2083.2000000000166" cy="-240.99213160770813" fill="#DD3355" r="5"/>
<circle cx="2088.000000000017" cy="-245.30420339780946" fill="#DD3355" r="5"/>
<circle cx="2092.8000000000166" cy="-248.8638604799458" fill="#DD3355" r="5"/>
<circle cx="2097.6000000000167" cy="-251.6355359375034" fill="#DD3355" r="5"/>
<circle cx="2102.400000000017" cy="-253.59153610508434" fill="#DD3355" r="5"/>
<circle cx="2107.200000000017" cy="-254.71231727516025" fill="#DD3355" r="5"/>
<circle cx="2112.0000000000173" cy="-254.9866809723793" fill="#DD3355" r="5"/>
<circle cx="2116.800000000017" cy="-254.41188584673876" fill="#DD3355" r="5"/>
<circle cx="2121.600000000017" cy="-252.99367506061225" fill="#DD3355" r="5"/>
<circle cx="2126.400000000017" cy="-250.74621890740175" fill="#DD3355" r="5"/>
<circle cx="2131.2000000000176" cy="-247.69197322620587" fill="#DD3355" r="5"/>
<circle cx="2136.0000000000173" cy="-243.86145502957075" fill="#DD3355" r="5"/>
<circle cx="2140.8000000000175" cy="-239.29293758918305" fill="#DD3355" r="5"/>
<circle cx="2145.6000000000176" cy="-234.032068021512" fill="#DD3355" r="5"/>
<circle cx="2150.4000000000174" cy="-228.13141119642336" fill="#DD3355" r="5"/>
<circle cx="2155.200000000018" cy="-221.64992452651381" fill="#DD3355" r="5"/>
<circle cx="2160.0000000000177" cy="-214.65236888419855" fill="#DD3355" r="5"/>
<circle cx="2164.800000000018" cy="-207.20866153253007" fill="#DD3355" r="5"/>
<circle cx="2169.6000000000176" cy="-199.3931775350273" fill="#DD3355" r="5"/>
<circle cx="2174.400000000018" cy="-191.28400662452117" fill="#DD3355" r="5"/>
<circle cx="2179.200000000018" cy="-182.96217295611427" fill="#DD3355" r="5"/>
<circle cx="2184.000000000018" cy="-174.5108255403664" fill="#DD3355" r="5"/>
<circle cx="2188.8000000000184" cy="-166.01440744613265" fill="#DD3355" r="5"/>
<circle cx="2193.600000000018" cy="-157.55781207185896" fill="#DD3355" r="5"/>
<circle cx="2198.4000000000183" cy="-149.22553492501402" fill="#DD3355" r="5"/>
<circle cx="2203.200000000018" cy="-141.10082937136954" fill="#DD3355" r="5"/>
<circle cx="2208.0000000000186" cy="-133.264874776581" fill="#DD3355" r="5"/>
<circle cx="2212.8000000000184" cy="-125.79596541137047" fill="#DD3355" r="5"/>
<circle cx="2217.6000000000186" cy="-118.76872814812641" fill="#DD3355" r="5"/>
<circle cx="2222.4000000000187" cy="-112.2533768184063" fill="#DD3355" r="5"/>
<circle cx="2227.2000000000185" cy="-106.31501065894643" fill="#DD3355" r="5"/>
<circle cx="2232.000000000019" cy="-101.01296386145104" fill="#DD3355" r="5"/>
<circle cx="2236.800000000019" cy="-96.4002127248895" fill="#DD3355" r="5"/>
<circle cx="2241.600000000019" cy="-92.52284633380417" fill="#DD3355" r="5"/>
<circle cx="2246.4000000000187" cy="-89.41960605143126" fill="#DD3355" r="5"/>
<circle cx="2251.200000000019" cy="-87.12149842881725" fill="#DD3355" r="5"/>
<circle cx="2256.000000000019" cy="-85.65148539768792" fill="#DD3355" r="5"/>
<circle cx="2260.8000000000193" cy="-85.0242548428603" fill="#DD3355" r="5"/>
<circle cx="2265.6000000000195" cy="-85.24607384439996" fill="#DD3355" r="5"/>
<circle cx="2270.400000000019" cy="-86.31472606031139" fill="#DD3355" r="5"/>
<circle cx="2275.2000000000194" cy="-88.2195338705859" fill="#DD3355" r="5"/>
<circle cx="2280.000000000019" cy="-90.94146506536886" fill="#DD3355" r="5"/>
<circle cx="2284.8000000000197" cy="-94.45332300782306" fill="#DD3355" r="5"/>
<circle cx="2289.6000000000195" cy="-98.72001837465572" fill="#DD3355" r="5"/>
<circle cx="2294.4000000000196" cy="-103.69891975643861" fill="#DD3355" r="5"/>
<circle cx="2299.20000000002" cy="-109.34027961601062" fill="#DD3355" r="5"/>
<circle cx="2304.0000000000196" cy="-115.58773135025656" fill="#DD3355" r="5"/>
<circle cx="2308.80000000002" cy="-122.37885248650608" fill="#DD3355" r="5"/>
<circle cx="2313.60000000002" cy="-129.6457883871323" fill="#DD3355" r="5"/>
<circle cx="2318.40000000002" cy="-137.31593023056334" fill="#DD3355" r="5"/>
<circle cx="2323.20000000002" cy="-145.31264049458724" fill="#DD3355" r="5"/>
<circle cx="2328.00000000002" cy="-153.55601869327538" fill="#DD3355" r="5"/>
<circle cx="2332.80000000002" cy="-161.9636997165576" fill="#DD3355" r="5"/>
<circle cx="2337.6000000000204" cy="-170.45167679320852" fill="#DD3355" r="5"/>
<circle cx="2342.4000000000206" cy="-178.93514086776" fill="#DD3355" r="5"/>
<circle cx="2347.2000000000203" cy="-187.32932796969652" fill="#DD3355" r="5"/>
<circle cx="2352.0000000000205" cy="-195.5503661557647" fill="#DD3355" r="5"/>
<circle cx="2356.80000000002" cy="-203.51611352825958" fill="#DD3355" r="5"/>
<circle cx="2361.600000000021" cy="-211.14697897436517" fill="#DD3355" r="5"/>
<circle cx="2366.4000000000206" cy="-218.36671740561755" fill="#DD3355" r="5"/>
<circle cx="2371.2000000000207" cy="-225.10319158392008" fill="#DD3355" r="5"/>
<circle cx="2376.000000000021" cy="-231.2890928864076" fill="#DD3355" r="5"/>
<circle cx="2380.8000000000206" cy="-236.86261383213517" fill="#DD3355" r="5"/>
<circle cx="2385.6000000000213" cy="-241.76806564221175" fill="#DD3355" r="5"/>
<circle cx="2390.400000000021" cy="-245.9564346637389" fill="#DD3355" r="5"/>
<circle cx="2395.200000000021" cy="-249.38587209804908" fill="#DD3355" r="5"/>
</g>
</g>
<g>
<g>
<line stroke="black" stroke-width="1" x1="0" x2="0" y1="0" y2="10"/>
<line stroke="black" stroke-width="1" x1="96" x2="96" y1="0" y2="10"/>
<line stroke="black" stroke-width="1" x1="192" x2="192" y1="0" y2="10"/>
<line stroke="black" stroke-width="1" x1="288" x2="288" y1="0" y2="10"/>
<line stroke="black" stroke-width="1" x1="384" x2="384" y1="0" y2="10"/>
<line stroke="black" stroke-width="1" x1="480" x2="480" y1="0" y2="10"/>
</g>
<line stroke="black" stroke-width="1" x1="0" x2="480" y1="0" y2="0"/>
<g>
<text font-size="12" text-anchor="middle" x="0" y="20">
0
</text>
<text font-size="12" text-anchor="middle" x="96" y="20">
2
</text>
<text font-size="12" text-anchor="middle" x="192" y="20">
4
</text>
<text font-size="12" text-anchor="middle" x="288" y="20">
6
</text>
<text font-size="12" text-anchor="middle" x="384" y="20">
8
</text>
<text font-size="12" text-anchor="middle" x="480" y="20">
10
</text>
</g>
<text font-size="12" text-anchor="middle" x="240" y="30">
Some varying variable
</text>
</g>
<g>
<g>
<line stroke="black" stroke-width="1" x1="0" x2="-10" y1="-0" y2="-0"/>
<line stroke="black" stroke-width="1" x1="0" x2="-10" y1="-85" y2="-85"/>
<line stroke="black" stroke-width="1" x1="0" x2="-10" y1="-170" y2="-170"/>
<line stroke="black" stroke-width="1" x1="0" x2="-10" y1="-255" y2="-255"/>
<line stroke="black" stroke-width="1" x1="0" x2="-10" y1="-340" y2="-340"/>
</g>
<line stroke="black" stroke-width="1" x1="0" x2="0" y1="0" y2="-340"/>
<g>
<text dominant-baseline="middle" font-size="12" text-anchor="end" x="-15" y="-0">
-2
</text>
<text dominant-baseline="middle" font-size="12" text-anchor="end" x="-15" y="-85">
-1
</text>
<text dominant-baseline="middle" font-size="12" text-anchor="end" x="-15" y="-170">
0
</text>
<text dominant-baseline="middle" font-size="12" text-anchor="end" x="-15" y="-255">
1
</text>
<text dominant-baseline="middle" font-size="12" text-anchor="end" x="-15" y="-340">
2
</text>
</g>
<text font-size="12" text-anchor="middle" transform="rotate(-90 -24 -170)" x="-24" y="-182">
The response of something
</text>
</g>
</g>
</svg>