<svg viewBox="0 0 600 400" xmlns="http://www.w3.org/2000/svg">
<g transform="translate(72, 364)">
<g>
<g>
<circle cx="0" cy="-255" fill="#DD3355" r="5"/>
<circle cx="4.8" cy="-260.7577046427998" fill="#DD3355" r="5"/>
<circle cx="9.6" cy="-261.8971763726433" fill="#DD3355" r="5"/>
<circle cx="14.400000000000002" cy="-259.5761305254439" fill="#DD3355" r="5"/>
<circle cx="19.2" cy="-254.77141330004463" fill="#DD3355" r="5"/>
<circle cx="24" cy="-248.29223451791765" fill="#DD3355" r="5"/>
<circle cx="28.8" cy="-240.795744542717" fill="#DD3355" r="5"/>
<circle cx="33.6" cy="-232.80381128785393" fill="#DD3355" r="5"/>
<circle cx="38.39999999999999" cy="-224.72010841557122" fill="#DD3355" r="5"/>
<circle cx="43.199999999999996" cy="-216.8468455266252" fill="#DD3355" r="5"/>
<circle cx="47.99999999999999" cy="-209.4006568772212" fill="#DD3355" r="5"/>
<circle cx="52.79999999999999" cy="-202.5273194790857" fill="#DD3355" r="5"/>
<circle cx="57.6" cy="-196.31509705271168" fill="#DD3355" r="5"/>
<circle cx="62.4" cy="-190.80660638343505" fill="#DD3355" r="5"/>
<circle cx="67.20000000000002" cy="-186.00918033735232" fill="#DD3355" r="5"/>
<circle cx="72.00000000000001" cy="-181.90376024653202" fill="#DD3355" r="5"/>
<circle cx="76.80000000000001" cy="-178.4523925461093" fill="#DD3355" r="5"/>
<circle cx="81.60000000000002" cy="-175.60443321085734" fill="#DD3355" r="5"/>
<circle cx="86.40000000000002" cy="-173.3015812082342" fill="#DD3355" r="5"/>
<circle cx="91.20000000000002" cy="-171.48187109936785" fill="#DD3355" r="5"/>
<circle cx="96.00000000000003" cy="-170.0827570469523" fill="#DD3355" r="5"/>
<circle cx="100.80000000000003" cy="-169.04341748744042" fill="#DD3355" r="5"/>
<circle cx="105.60000000000002" cy="-168.3064030927316" fill="#DD3355" r="5"/>
<circle cx="110.40000000000005" cy="-167.81874145746733" fill="#DD3355" r="5"/>
<circle cx="115.20000000000005" cy="-167.53260127557343" fill="#DD3355" r="5"/>
<circle cx="120.00000000000004" cy="-167.40560729960305" fill="#DD3355" r="5"/>
<circle cx="124.80000000000004" cy="-167.40088574878666" fill="#DD3355" r="5"/>
<circle cx="129.60000000000005" cy="-167.48690846138393" fill="#DD3355" r="5"/>
<circle cx="134.40000000000003" cy="-167.63719332204602" fill="#DD3355" r="5"/>
<circle cx="139.20000000000007" cy="-167.82990853797838" fill="#DD3355" r="5"/>
<circle cx="144.00000000000006" cy="-168.04741929786954" fill="#DD3355" r="5"/>
<circle cx="148.80000000000007" cy="-168.2758073945448" fill="#DD3355" r="5"/>
<circle cx="153.60000000000008" cy="-168.50438731141662" fill="#DD3355" r="5"/>
<circle cx="158.40000000000006" cy="-168.72523642603042" fill="#DD3355" r="5"/>
<circle cx="163.2000000000001" cy="-168.9327517784131" fill="#DD3355" r="5"/>
<circle cx="168.00000000000009" cy="-169.1232418470054" fill="#DD3355" r="5"/>
<circle cx="172.8000000000001" cy="-169.29455828359727" fill="#DD3355" r="5"/>
<circle cx="177.60000000000008" cy="-169.44576994008963" fill="#DD3355" r="5"/>
<circle cx="182.4000000000001" cy="-169.5768794739871" fill="#DD3355" r="5"/>
<circle cx="187.2000000000001" cy="-169.68858122022522" fill="#DD3355" r="5"/>
<circle cx="192.00000000000009" cy="-169.78205801341974" fill="#DD3355" r="5"/>
<circle cx="196.80000000000007" cy="-169.85881383705052" fill="#DD3355" r="5"/>
<circle cx="201.60000000000005" cy="-169.92053878316983" fill="#DD3355" r="5"/>
<circle cx="206.40000000000003" cy="-169.96900260704328" fill="#DD3355" r="5"/>
<circle cx="211.2" cy="-170.0059731247761" fill="#DD3355" r="5"/>
<circle cx="216" cy="-170.03315582729775" fill="#DD3355" r="5"/>
<circle cx="220.8" cy="-170.0521512922108" fill="#DD3355" r="5"/>
<circle cx="225.59999999999997" cy="-170.06442724736067" fill="#DD3355" r="5"/>
<circle cx="230.39999999999995" cy="-170.07130245013118" fill="#DD3355" r="5"/>
<circle cx="235.1999999999999" cy="-170.07393987623388" fill="#DD3355" r="5"/>
<circle cx="239.99999999999991" cy="-170.07334704047994" fill="#DD3355" r="5"/>
<circle cx="244.7999999999999" cy="-170.0703815865485" fill="#DD3355" r="5"/>
<circle cx="249.59999999999985" cy="-170.06576059154486" fill="#DD3355" r="5"/>
<circle cx="254.39999999999986" cy="-170.06007230272837" fill="#DD3355" r="5"/>
<circle cx="259.1999999999999" cy="-170.05378926243534" fill="#DD3355" r="5"/>
<circle cx="263.99999999999983" cy="-170.04728202291363" fill="#DD3355" r="5"/>
<circle cx="268.79999999999984" cy="-170.0408328198674" fill="#DD3355" r="5"/>
<circle cx="273.5999999999998" cy="-170.03464874008745" fill="#DD3355" r="5"/>
<circle cx="278.39999999999975" cy="-170.02887406553037" fill="#DD3355" r="5"/>
<circle cx="283.19999999999976" cy="-170.02360158094484" fill="#DD3355" r="5"/>
<circle cx="287.9999999999997" cy="-170.01888272539816" fill="#DD3355" r="5"/>
<circle cx="292.7999999999997" cy="-170.0147365385823" fill="#DD3355" r="5"/>
<circle cx="297.59999999999974" cy="-170.0111574015303" fill="#DD3355" r="5"/>
<circle cx="302.3999999999997" cy="-170.00812162068564" fill="#DD3355" r="5"/>
<circle cx="307.1999999999997" cy="-170.00559292862619" fill="#DD3355" r="5"/>
<circle cx="311.99999999999966" cy="-170.00352699196634" fill="#DD3355" r="5"/>
<circle cx="316.7999999999996" cy="-170.00187502922182" fill="#DD3355" r="5"/>
<circle cx="321.5999999999996" cy="-170.00058664396252" fill="#DD3355" r="5"/>
<circle cx="326.3999999999996" cy="-169.99961197902297" fill="#DD3355" r="5"/>
<circle cx="331.1999999999996" cy="-169.99890329391025" fill="#DD3355" r="5"/>
<circle cx="335.9999999999996" cy="-169.9984160605177" fill="#DD3355" r="5"/>
<circle cx="340.79999999999956" cy="-169.9981096642432" fill="#DD3355" r="5"/>
<circle cx="345.59999999999957" cy="-169.9979477886068" fill="#DD3355" r="5"/>
<circle cx="350.3999999999995" cy="-169.9978985520079" fill="#DD3355" r="5"/>
<circle cx="355.1999999999995" cy="-169.9979344561495" fill="#DD3355" r="5"/>
<circle cx="359.9999999999995" cy="-169.99803219713593" fill="#DD3355" r="5"/>
<circle cx="364.79999999999944" cy="-169.99817238238555" fill="#DD3355" r="5"/>
<circle cx="369.59999999999945" cy="-169.99833918212664" fill="#DD3355" r="5"/>
<circle cx="374.39999999999947" cy="-169.99851995230154" fill="#DD3355" r="5"/>
<circle cx="379.1999999999994" cy="-169.99870484934442" fill="#DD3355" r="5"/>
<circle cx="383.99999999999943" cy="-169.99888643063255" fill="#DD3355" r="5"/>
<circle cx="388.7999999999994" cy="-169.99905930529494" fill="#DD3355" r="5"/>
<circle cx="393.59999999999934" cy="-169.9992197740182" fill="#DD3355" r="5"/>
<circle cx="398.39999999999935" cy="-169.99936552417824" fill="#DD3355" r="5"/>
<circle cx="403.1999999999993" cy="-169.99949535371593" fill="#DD3355" r="5"/>
<circle cx="407.9999999999993" cy="-169.99960891300253" fill="#DD3355" r="5"/>
<circle cx="412.7999999999993" cy="-169.99970651170057" fill="#DD3355" r="5"/>
<circle cx="417.5999999999993" cy="-169.9997889220619" fill="#DD3355" r="5"/>
<circle cx="422.3999999999993" cy="-169.9998572435354" fill="#DD3355" r="5"/>
<circle cx="427.19999999999925" cy="-169.9999127746855" fill="#DD3355" r="5"/>
<circle cx="431.99999999999926" cy="-169.99995691664097" fill="#DD3355" r="5"/>
<circle cx="436.79999999999916" cy="-169.99999110277213" fill="#DD3355" r="5"/>
<circle cx="441.59999999999917" cy="-170.00001673383946" fill="#DD3355" r="5"/>
<circle cx="446.3999999999992" cy="-170.0000351465125" fill="#DD3355" r="5"/>
<circle cx="451.1999999999992" cy="-170.00004757547387" fill="#DD3355" r="5"/>
<circle cx="455.9999999999992" cy="-170.0000551452576" fill="#DD3355" r="5"/>
<circle cx="460.7999999999991" cy="-170.00005885317032" fill="#DD3355" r="5"/>
<circle cx="465.5999999999991" cy="-170.00005957331243" fill="#DD3355" r="5"/>
<circle cx="470.39999999999907" cy="-170.0000580549607" fill="#DD3355" r="5"/>
<circle cx="475.1999999999991" cy="-170.00005493035928" fill="#DD3355" r="5"/>
<circle cx="479.9999999999991" cy="-170.00005072384434" fill="#DD3355" r="5"/>
<circle cx="484.7999999999991" cy="-170.00004586080289" fill="#DD3355" r="5"/>
<circle cx="489.599999999999" cy="-170.00004067799767" fill="#DD3355" r="5"/>
<circle cx="494.399999999999" cy="-170.0000354377194" fill="#DD3355" r="5"/>
<circle cx="499.199999999999" cy="-170.00003033605384" fill="#DD3355" r="5"/>
<circle cx="503.999999999999" cy="-170.0000255102653" fill="#DD3355" r="5"/>
<circle cx="508.799999999999" cy="-170.00002105641332" fill="#DD3355" r="5"/>
<circle cx="513.5999999999989" cy="-170.00001703340067" fill="#DD3355" r="5"/>
<circle cx="518.399999999999" cy="-170.00001346525875" fill="#DD3355" r="5"/>
<circle cx="523.1999999999989" cy="-170.00001035702678" fill="#DD3355" r="5"/>
<circle cx="527.9999999999989" cy="-170.00000769911338" fill="#DD3355" r="5"/>
<circle cx="532.7999999999989" cy="-170.00000546498538" fill="#DD3355" r="5"/>
<circle cx="537.5999999999988" cy="-170.00000362039265" fill="#DD3355" r="5"/>
<circle cx="542.3999999999988" cy="-170.00000212958216" fill="#DD3355" r="5"/>
<circle cx="547.1999999999988" cy="-170.00000095273032" fill="#DD3355" r="5"/>
<circle cx="551.9999999999989" cy="-170.00000004732604" fill="#DD3355" r="5"/>
<circle cx="556.7999999999988" cy="-169.99999937439222" fill="#DD3355" r="5"/>
<circle cx="561.5999999999988" cy="-169.99999889824355" fill="#DD3355" r="5"/>
<circle cx="566.3999999999987" cy="-169.9999985835679" fill="#DD3355" r="5"/>
<circle cx="571.1999999999987" cy="-169.99999839868065" fill="#DD3355" r="5"/>
<circle cx="575.9999999999987" cy="-169.99999831669263" fill="#DD3355" r="5"/>
<circle cx="580.7999999999987" cy="-169.9999983144307" fill="#DD3355" r="5"/>
<circle cx="585.5999999999988" cy="-169.9999983708295" fill="#DD3355" r="5"/>
<circle cx="590.3999999999986" cy="-169.99999846849283" fill="#DD3355" r="5"/>
<circle cx="595.1999999999987" cy="-169.99999859342063" fill="#DD3355" r="5"/>
<circle cx="599.9999999999986" cy="-169.99999873458603" fill="#DD3355" r="5"/>
<circle cx="604.7999999999986" cy="-169.99999888268238" fill="#DD3355" r="5"/>
<circle cx="609.5999999999987" cy="-169.9999990309675" fill="#DD3355" r="5"/>
<circle cx="614.3999999999985" cy="-169.99999917425512" fill="#DD3355" r="5"/>
<circle cx="619.1999999999986" cy="-169.99999930883843" fill="#DD3355" r="5"/>
<circle cx="623.9999999999985" cy="-169.9999994321397" fill="#DD3355" r="5"/>
<circle cx="628.7999999999986" cy="-169.99999954251317" fill="#DD3355" r="5"/>
<circle cx="633.5999999999985" cy="-169.99999964014089" fill="#DD3355" r="5"/>
<circle cx="638.3999999999985" cy="-169.99999972532515" fill="#DD3355" r="5"/>
<circle cx="643.1999999999985" cy="-169.9999997983913" fill="#DD3355" r="5"/>
<circle cx="647.9999999999984" cy="-169.99999985968756" fill="#DD3355" r="5"/>
<circle cx="652.7999999999985" cy="-169.99999990960438" fill="#DD3355" r="5"/>
<circle cx="657.5999999999984" cy="-169.99999994921964" fill="#DD3355" r="5"/>
<circle cx="662.3999999999985" cy="-169.999999980245" fill="#DD3355" r="5"/>
<circle cx="667.1999999999983" cy="-170.0000000041371" fill="#DD3355" r="5"/>
<circle cx="671.9999999999984" cy="-170.00000002205124" fill="#DD3355" r="5"/>
<circle cx="676.7999999999984" cy="-170.00000003484166" fill="#DD3355" r="5"/>
<circle cx="681.5999999999983" cy="-170.00000004306133" fill="#DD3355" r="5"/>
<circle cx="686.3999999999984" cy="-170.00000004729227" fill="#DD3355" r="5"/>
<circle cx="691.1999999999982" cy="-170.00000004867996" fill="#DD3355" r="5"/>
<circle cx="695.9999999999983" cy="-170.00000004804383" fill="#DD3355" r="5"/>
<circle cx="700.7999999999982" cy="-170.000000046028" fill="#DD3355" r="5"/>
<circle cx="705.5999999999983" cy="-170.00000004310849" fill="#DD3355" r="5"/>
<circle cx="710.3999999999983" cy="-170.0000000395933" fill="#DD3355" r="5"/>
<circle cx="715.1999999999982" cy="-170.00000003562232" fill="#DD3355" r="5"/>
<circle cx="719.9999999999982" cy="-170.00000003127735" fill="#DD3355" r="5"/>
<circle cx="724.7999999999981" cy="-170.00000002699906" fill="#DD3355" r="5"/>
<circle cx="729.5999999999982" cy="-170.000000022922" fill="#DD3355" r="5"/>
<circle cx="734.3999999999982" cy="-170.0000000191146" fill="#DD3355" r="5"/>
<circle cx="739.1999999999982" cy="-170.00000001562753" fill="#DD3355" r="5"/>
<circle cx="743.9999999999981" cy="-170.00000001249362" fill="#DD3355" r="5"/>
<circle cx="748.7999999999981" cy="-170.00000000972767" fill="#DD3355" r="5"/>
<circle cx="753.5999999999981" cy="-170.00000000732678" fill="#DD3355" r="5"/>
<circle cx="758.399999999998" cy="-170.00000000527012" fill="#DD3355" r="5"/>
<circle cx="763.1999999999981" cy="-170.0000000036407" fill="#DD3355" r="5"/>
<circle cx="767.999999999998" cy="-170.00000000256182" fill="#DD3355" r="5"/>
<circle cx="772.799999999998" cy="-170.00000000184613" fill="#DD3355" r="5"/>
<circle cx="777.5999999999981" cy="-170.0000000013325" fill="#DD3355" r="5"/>
<circle cx="782.3999999999982" cy="-170.00000000089648" fill="#DD3355" r="5"/>
<circle cx="787.1999999999982" cy="-170.00000000045014" fill="#DD3355" r="5"/>
<circle cx="791.9999999999983" cy="-169.99999999994222" fill="#DD3355" r="5"/>
<circle cx="796.7999999999984" cy="-169.99999999935807" fill="#DD3355" r="5"/>
<circle cx="801.5999999999984" cy="-169.99999999871963" fill="#DD3355" r="5"/>
<circle cx="806.3999999999985" cy="-169.99999999808549" fill="#DD3355" r="5"/>
<circle cx="811.1999999999986" cy="-169.99999999755082" fill="#DD3355" r="5"/>
<circle cx="815.9999999999986" cy="-169.99999999724744" fill="#DD3355" r="5"/>
<circle cx="820.7999999999987" cy="-169.99999999733075" fill="#DD3355" r="5"/>
<circle cx="825.5999999999988" cy="-169.9999999975984" fill="#DD3355" r="5"/>
<circle cx="830.399999999999" cy="-169.99999999789273" fill="#DD3355" r="5"/>
<circle cx="835.1999999999989" cy="-169.99999999818834" fill="#DD3355" r="5"/>
<circle cx="839.9999999999989" cy="-169.99999999846554" fill="#DD3355" r="5"/>
<circle cx="844.799999999999" cy="-169.99999999871054" fill="#DD3355" r="5"/>
<circle cx="849.5999999999991" cy="-169.99999999891523" fill="#DD3355" r="5"/>
<circle cx="854.3999999999993" cy="-169.9999999990774" fill="#DD3355" r="5"/>
<circle cx="859.1999999999992" cy="-169.99999999920067" fill="#DD3355" r="5"/>
<circle cx="863.9999999999993" cy="-169.99999999929437" fill="#DD3355" r="5"/>
<circle cx="868.7999999999995" cy="-169.9999999993737" fill="#DD3355" r="5"/>
<circle cx="873.5999999999995" cy="-169.99999999945965" fill="#DD3355" r="5"/>
<circle cx="878.3999999999994" cy="-169.999999999579" fill="#DD3355" r="5"/>
<circle cx="883.1999999999996" cy="-169.99999999970547" fill="#DD3355" r="5"/>
<circle cx="887.9999999999997" cy="-169.99999999967895" fill="#DD3355" r="5"/>
<circle cx="892.7999999999996" cy="-169.999999999544" fill="#DD3355" r="5"/>
<circle cx="897.5999999999998" cy="-169.99999999935625" fill="#DD3355" r="5"/>
<circle cx="902.3999999999999" cy="-169.99999999916258" fill="#DD3355" r="5"/>
<circle cx="907.2" cy="-169.9999999990012" fill="#DD3355" r="5"/>
<circle cx="912" cy="-169.9999999989017" fill="#DD3355" r="5"/>
<circle cx="916.8" cy="-169.99999999888485" fill="#DD3355" r="5"/>
<circle cx="921.6000000000001" cy="-169.9999999989628" fill="#DD3355" r="5"/>
<circle cx="926.4000000000002" cy="-169.99999999913902" fill="#DD3355" r="5"/>
<circle cx="931.2000000000004" cy="-169.9999999994083" fill="#DD3355" r="5"/>
<circle cx="936.0000000000003" cy="-169.99999999975662" fill="#DD3355" r="5"/>
<circle cx="940.8000000000004" cy="-170.0000000001614" fill="#DD3355" r="5"/>
<circle cx="945.6000000000006" cy="-170.0000000005913" fill="#DD3355" r="5"/>
<circle cx="950.4000000000005" cy="-170.00000000100638" fill="#DD3355" r="5"/>
<circle cx="955.2000000000005" cy="-170.00000000135785" fill="#DD3355" r="5"/>
<circle cx="960.0000000000007" cy="-170.00000000158835" fill="#DD3355" r="5"/>
<circle cx="964.8000000000008" cy="-170.00000000163175" fill="#DD3355" r="5"/>
<circle cx="969.6000000000007" cy="-170.00000000145891" fill="#DD3355" r="5"/>
<circle cx="974.4000000000009" cy="-170.00000000120528" fill="#DD3355" r="5"/>
<circle cx="979.200000000001" cy="-170.00000000092288" fill="#DD3355" r="5"/>
<circle cx="984.0000000000011" cy="-170.00000000064625" fill="#DD3355" r="5"/>
<circle cx="988.8000000000011" cy="-170.00000000040345" fill="#DD3355" r="5"/>
<circle cx="993.600000000001" cy="-170.00000000021623" fill="#DD3355" r="5"/>
<circle cx="998.4000000000012" cy="-170.00000000009987" fill="#DD3355" r="5"/>
<circle cx="1003.2000000000013" cy="-170.00000000006324" fill="#DD3355" r="5"/>
<circle cx="1008.0000000000015" cy="-170.00000000010868" fill="#DD3355" r="5"/>
<circle cx="1012.8000000000014" cy="-170.0000000002323" fill="#DD3355" r="5"/>
<circle cx="1017.6000000000015" cy="-170.00000000042357" fill="#DD3355" r="5"/>
<circle cx="1022.4000000000017" cy="-170.00000000066572" fill="#DD3355" r="5"/>
<circle cx="1027.2000000000016" cy="-170.00000000093542" fill="#DD3355" r="5"/>
<circle cx="1032.0000000000016" cy="-170.00000000120298" fill="#DD3355" r="5"/>
<circle cx="1036.8000000000018" cy="-170.00000000143228" fill="#DD3355" r="5"/>
<circle cx="1041.6000000000017" cy="-170.00000000158076" fill="#DD3355" r="5"/>
<circle cx="1046.400000000002" cy="-170.0000000015995" fill="#DD3355" r="5"/>
<circle cx="1051.200000000002" cy="-170.00000000143297" fill="#DD3355" r="5"/>
<circle cx="1056.000000000002" cy="-170.00000000101946" fill="#DD3355" r="5"/>
<circle cx="1060.8000000000022" cy="-170.00000000058455" fill="#DD3355" r="5"/>
<circle cx="1065.6000000000022" cy="-170.00000000063548" fill="#DD3355" r="5"/>
<circle cx="1070.4000000000021" cy="-170.00000000099186" fill="#DD3355" r="5"/>
<circle cx="1075.2000000000023" cy="-170.0000000014779" fill="#DD3355" r="5"/>
<circle cx="1080.0000000000023" cy="-170.00000000194876" fill="#DD3355" r="5"/>
<circle cx="1084.8000000000025" cy="-170.00000000229056" fill="#DD3355" r="5"/>
<circle cx="1089.6000000000026" cy="-170.00000000242022" fill="#DD3355" r="5"/>
<circle cx="1094.4000000000026" cy="-170.00000000228562" fill="#DD3355" r="5"/>
<circle cx="1099.2000000000028" cy="-170.00000000186552" fill="#DD3355" r="5"/>
<circle cx="1104.0000000000027" cy="-170.0000000011696" fill="#DD3355" r="5"/>
<circle cx="1108.8000000000027" cy="-170.00000000023846" fill="#DD3355" r="5"/>
<circle cx="1113.6000000000029" cy="-169.9999999991435" fill="#DD3355" r="5"/>
<circle cx="1118.4000000000028" cy="-169.99999999798717" fill="#DD3355" r="5"/>
<circle cx="1123.200000000003" cy="-169.9999999969027" fill="#DD3355" r="5"/>
<circle cx="1128.0000000000032" cy="-169.99999999605427" fill="#DD3355" r="5"/>
<circle cx="1132.8000000000031" cy="-169.999999995637" fill="#DD3355" r="5"/>
<circle cx="1137.6000000000033" cy="-169.9999999958713" fill="#DD3355" r="5"/>
<circle cx="1142.4000000000033" cy="-169.9999999964134" fill="#DD3355" r="5"/>
<circle cx="1147.2000000000032" cy="-169.99999999692488" fill="#DD3355" r="5"/>
<circle cx="1152.0000000000034" cy="-169.99999999738992" fill="#DD3355" r="5"/>
<circle cx="1156.8000000000034" cy="-169.999999997797" fill="#DD3355" r="5"/>
<circle cx="1161.6000000000035" cy="-169.99999999813912" fill="#DD3355" r="5"/>
<circle cx="1166.4000000000037" cy="-169.99999999841376" fill="#DD3355" r="5"/>
<circle cx="1171.2000000000037" cy="-169.99999999862277" fill="#DD3355" r="5"/>
<circle cx="1176.0000000000039" cy="-169.99999999877252" fill="#DD3355" r="5"/>
<circle cx="1180.8000000000038" cy="-169.99999999887382" fill="#DD3355" r="5"/>
<circle cx="1185.6000000000038" cy="-169.9999999989419" fill="#DD3355" r="5"/>
<circle cx="1190.400000000004" cy="-169.99999999899643" fill="#DD3355" r="5"/>
<circle cx="1195.200000000004" cy="-169.99999999906163" fill="#DD3355" r="5"/>
<circle cx="1200.000000000004" cy="-169.99999999916605" fill="#DD3355" r="5"/>
<circle cx="1204.8000000000043" cy="-169.99999999934275" fill="#DD3355" r="5"/>
<circle cx="1209.6000000000042" cy="-169.9999999996292" fill="#DD3355" r="5"/>
<circle cx="1214.4000000000044" cy="-170.00000000001577" fill="#DD3355" r="5"/>
<circle cx="1219.2000000000044" cy="-170.00000000002498" fill="#DD3355" r="5"/>
<circle cx="1224.0000000000043" cy="-169.99999999968728" fill="#DD3355" r="5"/>
<circle cx="1228.8000000000045" cy="-169.99999999917688" fill="#DD3355" r="5"/>
<circle cx="1233.6000000000045" cy="-169.99999999863945" fill="#DD3355" r="5"/>
<circle cx="1238.4000000000046" cy="-169.99999999819218" fill="#DD3355" r="5"/>
<circle cx="1243.2000000000048" cy="-169.99999999792368" fill="#DD3355" r="5"/>
<circle cx="1248.0000000000048" cy="-169.99999999789415" fill="#DD3355" r="5"/>
<circle cx="1252.800000000005" cy="-169.99999999813514" fill="#DD3355" r="5"/>
<circle cx="1257.600000000005" cy="-169.9999999986498" fill="#DD3355" r="5"/>
<circle cx="1262.4000000000049" cy="-169.99999999941267" fill="#DD3355" r="5"/>
<circle cx="1267.200000000005" cy="-170.00000000036985" fill="#DD3355" r="5"/>
<circle cx="1272.000000000005" cy="-170.0000000014389" fill="#DD3355" r="5"/>
<circle cx="1276.8000000000052" cy="-170.00000000250884" fill="#DD3355" r="5"/>
<circle cx="1281.6000000000054" cy="-170.0000000034402" fill="#DD3355" r="5"/>
<circle cx="1286.4000000000053" cy="-170.00000000406493" fill="#DD3355" r="5"/>
<circle cx="1291.2000000000055" cy="-170.00000000418657" fill="#DD3355" r="5"/>
<circle cx="1296.0000000000055" cy="-170.0000000036901" fill="#DD3355" r="5"/>
<circle cx="1300.8000000000054" cy="-170.00000000317146" fill="#DD3355" r="5"/>
<circle cx="1305.6000000000056" cy="-170.00000000274588" fill="#DD3355" r="5"/>
<circle cx="1310.4000000000055" cy="-170.00000000239572" fill="#DD3355" r="5"/>
<circle cx="1315.2000000000057" cy="-170.00000000210485" fill="#DD3355" r="5"/>
<circle cx="1320.000000000006" cy="-170.00000000185847" fill="#DD3355" r="5"/>
<circle cx="1324.8000000000059" cy="-170.00000000164314" fill="#DD3355" r="5"/>
<circle cx="1329.600000000006" cy="-170.00000000144686" fill="#DD3355" r="5"/>
<circle cx="1334.400000000006" cy="-170.00000000125902" fill="#DD3355" r="5"/>
<circle cx="1339.200000000006" cy="-170.00000000107033" fill="#DD3355" r="5"/>
<circle cx="1344.0000000000061" cy="-170.00000000087294" fill="#DD3355" r="5"/>
<circle cx="1348.800000000006" cy="-170.00000000066035" fill="#DD3355" r="5"/>
<circle cx="1353.6000000000063" cy="-170.0000000004275" fill="#DD3355" r="5"/>
<circle cx="1358.4000000000065" cy="-170.00000000017062" fill="#DD3355" r="5"/>
<circle cx="1363.2000000000064" cy="-169.99999999988745" fill="#DD3355" r="5"/>
<circle cx="1368.0000000000066" cy="-169.99999999957697" fill="#DD3355" r="5"/>
<circle cx="1372.8000000000065" cy="-169.99999999940022" fill="#DD3355" r="5"/>
<circle cx="1377.6000000000065" cy="-169.9999999996323" fill="#DD3355" r="5"/>
<circle cx="1382.4000000000067" cy="-170.00000000011136" fill="#DD3355" r="5"/>
<circle cx="1387.2000000000066" cy="-170.0000000006847" fill="#DD3355" r="5"/>
<circle cx="1392.0000000000068" cy="-170.00000000122657" fill="#DD3355" r="5"/>
<circle cx="1396.800000000007" cy="-170.00000000163783" fill="#DD3355" r="5"/>
<circle cx="1401.600000000007" cy="-170.0000000018463" fill="#DD3355" r="5"/>
<circle cx="1406.4000000000071" cy="-170.00000000180657" fill="#DD3355" r="5"/>
<circle cx="1411.200000000007" cy="-170.00000000149993" fill="#DD3355" r="5"/>
<circle cx="1416.000000000007" cy="-170.00000000093462" fill="#DD3355" r="5"/>
<circle cx="1420.8000000000072" cy="-170.00000000014563" fill="#DD3355" r="5"/>
<circle cx="1425.6000000000072" cy="-169.99999999919467" fill="#DD3355" r="5"/>
<circle cx="1430.4000000000074" cy="-169.99999999817038" fill="#DD3355" r="5"/>
<circle cx="1435.2000000000075" cy="-169.9999999971881" fill="#DD3355" r="5"/>
<circle cx="1440.0000000000075" cy="-169.99999999639007" fill="#DD3355" r="5"/>
<circle cx="1444.8000000000077" cy="-169.99999999594527" fill="#DD3355" r="5"/>
<circle cx="1449.6000000000076" cy="-169.9999999960495" fill="#DD3355" r="5"/>
<circle cx="1454.4000000000076" cy="-169.99999999665553" fill="#DD3355" r="5"/>
<circle cx="1459.2000000000078" cy="-169.9999999971248" fill="#DD3355" r="5"/>
<circle cx="1464.0000000000077" cy="-169.99999999746086" fill="#DD3355" r="5"/>
<circle cx="1468.800000000008" cy="-169.99999999770867" fill="#DD3355" r="5"/>
<circle cx="1473.600000000008" cy="-169.99999999790666" fill="#DD3355" r="5"/>
<circle cx="1478.400000000008" cy="-169.99999999808637" fill="#DD3355" r="5"/>
<circle cx="1483.2000000000082" cy="-169.99999999827278" fill="#DD3355" r="5"/>
<circle cx="1488.0000000000082" cy="-169.99999999848416" fill="#DD3355" r="5"/>
<circle cx="1492.8000000000081" cy="-169.9999999987321" fill="#DD3355" r="5"/>
<circle cx="1497.6000000000083" cy="-169.99999999902144" fill="#DD3355" r="5"/>
<circle cx="1502.4000000000083" cy="-169.9999999993504" fill="#DD3355" r="5"/>
<circle cx="1507.2000000000085" cy="-169.99999999971047" fill="#DD3355" r="5"/>
<circle cx="1512.0000000000086" cy="-170.0000000000865" fill="#DD3355" r="5"/>
<circle cx="1516.8000000000086" cy="-170.0000000004565" fill="#DD3355" r="5"/>
<circle cx="1521.6000000000088" cy="-170.00000000079208" fill="#DD3355" r="5"/>
<circle cx="1526.4000000000087" cy="-170.00000000105788" fill="#DD3355" r="5"/>
<circle cx="1531.2000000000087" cy="-170.00000000103856" fill="#DD3355" r="5"/>
<circle cx="1536.0000000000089" cy="-170.00000000067078" fill="#DD3355" r="5"/>
<circle cx="1540.8000000000088" cy="-170.00000000011758" fill="#DD3355" r="5"/>
<circle cx="1545.600000000009" cy="-169.99999999951658" fill="#DD3355" r="5"/>
<circle cx="1550.4000000000092" cy="-169.9999999989799" fill="#DD3355" r="5"/>
<circle cx="1555.2000000000091" cy="-169.99999999859435" fill="#DD3355" r="5"/>
<circle cx="1560.0000000000093" cy="-169.99999999842123" fill="#DD3355" r="5"/>
<circle cx="1564.8000000000093" cy="-169.99999999849646" fill="#DD3355" r="5"/>
<circle cx="1569.6000000000092" cy="-169.99999999883062" fill="#DD3355" r="5"/>
<circle cx="1574.4000000000094" cy="-169.99999999940871" fill="#DD3355" r="5"/>
<circle cx="1579.2000000000094" cy="-170.00000000019043" fill="#DD3355" r="5"/>
<circle cx="1584.0000000000095" cy="-170.0000000011101" fill="#DD3355" r="5"/>
<circle cx="1588.8000000000097" cy="-170.00000000207646" fill="#DD3355" r="5"/>
<circle cx="1593.6000000000097" cy="-170.00000000297297" fill="#DD3355" r="5"/>
<circle cx="1598.4000000000099" cy="-170.0000000036576" fill="#DD3355" r="5"/>
<circle cx="1603.2000000000098" cy="-170.000000003963" fill="#DD3355" r="5"/>
<circle cx="1608.0000000000098" cy="-170.00000000369633" fill="#DD3355" r="5"/>
<circle cx="1612.80000000001" cy="-170.00000000305295" fill="#DD3355" r="5"/>
<circle cx="1617.60000000001" cy="-170.0000000026502" fill="#DD3355" r="5"/>
<circle cx="1622.40000000001" cy="-170.00000000241948" fill="#DD3355" r="5"/>
<circle cx="1627.2000000000103" cy="-170.0000000022872" fill="#DD3355" r="5"/>
<circle cx="1632.0000000000102" cy="-170.00000000219222" fill="#DD3355" r="5"/>
<circle cx="1636.8000000000104" cy="-170.00000000208541" fill="#DD3355" r="5"/>
<circle cx="1641.6000000000101" cy="-170.00000000193" fill="#DD3355" r="5"/>
<circle cx="1646.4000000000106" cy="-170.00000000170124" fill="#DD3355" r="5"/>
<circle cx="1651.2000000000105" cy="-170.0000000013868" fill="#DD3355" r="5"/>
<circle cx="1656.0000000000105" cy="-170.00000000098635" fill="#DD3355" r="5"/>
<circle cx="1660.8000000000106" cy="-170.00000000051182" fill="#DD3355" r="5"/>
<circle cx="1665.6000000000106" cy="-169.9999999999874" fill="#DD3355" r="5"/>
<circle cx="1670.400000000011" cy="-169.99999999944944" fill="#DD3355" r="5"/>
<circle cx="1675.200000000011" cy="-169.99999999894644" fill="#DD3355" r="5"/>
<circle cx="1680.000000000011" cy="-169.99999999853918" fill="#DD3355" r="5"/>
<circle cx="1684.8000000000109" cy="-169.99999999830055" fill="#DD3355" r="5"/>
<circle cx="1689.6000000000108" cy="-169.99999999845463" fill="#DD3355" r="5"/>
<circle cx="1694.4000000000112" cy="-169.9999999990554" fill="#DD3355" r="5"/>
<circle cx="1699.2000000000112" cy="-169.99999999989842" fill="#DD3355" r="5"/>
<circle cx="1704.0000000000114" cy="-170.00000000080877" fill="#DD3355" r="5"/>
<circle cx="1708.8000000000113" cy="-170.00000000164172" fill="#DD3355" r="5"/>
<circle cx="1713.6000000000113" cy="-170.00000000228243" fill="#DD3355" r="5"/>
<circle cx="1718.4000000000117" cy="-170.00000000264635" fill="#DD3355" r="5"/>
<circle cx="1723.2000000000116" cy="-170.00000000267872" fill="#DD3355" r="5"/>
<circle cx="1728.0000000000116" cy="-170.00000000235502" fill="#DD3355" r="5"/>
<circle cx="1732.8000000000116" cy="-170.00000000168077" fill="#DD3355" r="5"/>
<circle cx="1737.6000000000117" cy="-170.00000000069153" fill="#DD3355" r="5"/>
<circle cx="1742.4000000000117" cy="-169.99999999945288" fill="#DD3355" r="5"/>
<circle cx="1747.200000000012" cy="-169.99999999806056" fill="#DD3355" r="5"/>
<circle cx="1752.000000000012" cy="-169.9999999966402" fill="#DD3355" r="5"/>
<circle cx="1756.800000000012" cy="-169.99999999534774" fill="#DD3355" r="5"/>
<circle cx="1761.600000000012" cy="-169.99999999436892" fill="#DD3355" r="5"/>
<circle cx="1766.400000000012" cy="-169.9999999939197" fill="#DD3355" r="5"/>
<circle cx="1771.2000000000123" cy="-169.99999999424605" fill="#DD3355" r="5"/>
<circle cx="1776.0000000000123" cy="-169.9999999953278" fill="#DD3355" r="5"/>
<circle cx="1780.8000000000125" cy="-169.9999999960016" fill="#DD3355" r="5"/>
<circle cx="1785.6000000000124" cy="-169.99999999628187" fill="#DD3355" r="5"/>
<circle cx="1790.4000000000124" cy="-169.99999999634005" fill="#DD3355" r="5"/>
<circle cx="1795.2000000000123" cy="-169.99999999631942" fill="#DD3355" r="5"/>
<circle cx="1800.0000000000127" cy="-169.99999999633508" fill="#DD3355" r="5"/>
<circle cx="1804.8000000000127" cy="-169.99999999647412" fill="#DD3355" r="5"/>
<circle cx="1809.6000000000126" cy="-169.99999999679542" fill="#DD3355" r="5"/>
<circle cx="1814.4000000000128" cy="-169.99999999732978" fill="#DD3355" r="5"/>
<circle cx="1819.2000000000128" cy="-169.99999999807986" fill="#DD3355" r="5"/>
<circle cx="1824.0000000000132" cy="-169.99999999902016" fill="#DD3355" r="5"/>
<circle cx="1828.8000000000131" cy="-170.0000000000971" fill="#DD3355" r="5"/>
<circle cx="1833.600000000013" cy="-170.0000000012289" fill="#DD3355" r="5"/>
<circle cx="1838.400000000013" cy="-170.00000000230585" fill="#DD3355" r="5"/>
<circle cx="1843.200000000013" cy="-170.00000000318985" fill="#DD3355" r="5"/>
<circle cx="1848.0000000000134" cy="-170.00000000371486" fill="#DD3355" r="5"/>
<circle cx="1852.8000000000134" cy="-170.00000000369988" fill="#DD3355" r="5"/>
<circle cx="1857.6000000000136" cy="-170.00000000318013" fill="#DD3355" r="5"/>
<circle cx="1862.4000000000135" cy="-170.00000000237304" fill="#DD3355" r="5"/>
<circle cx="1867.2000000000135" cy="-170.0000000014685" fill="#DD3355" r="5"/>
<circle cx="1872.0000000000139" cy="-170.00000000062155" fill="#DD3355" r="5"/>
<circle cx="1876.8000000000138" cy="-169.99999999995256" fill="#DD3355" r="5"/>
<circle cx="1881.6000000000138" cy="-169.999999999547" fill="#DD3355" r="5"/>
<circle cx="1886.4000000000137" cy="-169.99999999945564" fill="#DD3355" r="5"/>
<circle cx="1891.200000000014" cy="-169.99999999969447" fill="#DD3355" r="5"/>
<circle cx="1896.0000000000139" cy="-170.00000000024465" fill="#DD3355" r="5"/>
<circle cx="1900.8000000000143" cy="-170.00000000105254" fill="#DD3355" r="5"/>
<circle cx="1905.6000000000142" cy="-170.00000000202985" fill="#DD3355" r="5"/>
<circle cx="1910.4000000000142" cy="-170.00000000305337" fill="#DD3355" r="5"/>
<circle cx="1915.2000000000141" cy="-170.00000000396508" fill="#DD3355" r="5"/>
<circle cx="1920.000000000014" cy="-170.00000000457237" fill="#DD3355" r="5"/>
<circle cx="1924.8000000000145" cy="-170.00000000464766" fill="#DD3355" r="5"/>
<circle cx="1929.6000000000145" cy="-170.0000000039305" fill="#DD3355" r="5"/>
<circle cx="1934.4000000000146" cy="-170.00000000308972" fill="#DD3355" r="5"/>
<circle cx="1939.2000000000146" cy="-170.00000000269807" fill="#DD3355" r="5"/>
<circle cx="1944.0000000000146" cy="-170.00000000257725" fill="#DD3355" r="5"/>
<circle cx="1948.8000000000145" cy="-170.00000000257782" fill="#DD3355" r="5"/>
<circle cx="1953.600000000015" cy="-170.00000000257913" fill="#DD3355" r="5"/>
<circle cx="1958.4000000000149" cy="-170.0000000024895" fill="#DD3355" r="5"/>
<circle cx="1963.2000000000148" cy="-170.00000000224597" fill="#DD3355" r="5"/>
<circle cx="1968.000000000015" cy="-170.00000000181467" fill="#DD3355" r="5"/>
<circle cx="1972.800000000015" cy="-170.00000000119036" fill="#DD3355" r="5"/>
<circle cx="1977.6000000000154" cy="-170.0000000003968" fill="#DD3355" r="5"/>
<circle cx="1982.4000000000153" cy="-169.99999999948662" fill="#DD3355" r="5"/>
<circle cx="1987.2000000000153" cy="-169.99999999854123" fill="#DD3355" r="5"/>
<circle cx="1992.0000000000152" cy="-169.99999999767098" fill="#DD3355" r="5"/>
<circle cx="1996.8000000000152" cy="-169.9999999970151" fill="#DD3355" r="5"/>
<circle cx="2001.6000000000156" cy="-169.9999999967416" fill="#DD3355" r="5"/>
<circle cx="2006.4000000000156" cy="-169.99999999694444" fill="#DD3355" r="5"/>
<circle cx="2011.2000000000157" cy="-169.99999999737668" fill="#DD3355" r="5"/>
<circle cx="2016.0000000000157" cy="-169.99999999791447" fill="#DD3355" r="5"/>
<circle cx="2020.8000000000156" cy="-169.9999999984664" fill="#DD3355" r="5"/>
<circle cx="2025.600000000016" cy="-169.99999999895937" fill="#DD3355" r="5"/>
<circle cx="2030.400000000016" cy="-169.99999999933874" fill="#DD3355" r="5"/>
<circle cx="2035.200000000016" cy="-169.99999999956827" fill="#DD3355" r="5"/>
<circle cx="2040.000000000016" cy="-169.99999999963012" fill="#DD3355" r="5"/>
<circle cx="2044.800000000016" cy="-169.99999999952485" fill="#DD3355" r="5"/>
<circle cx="2049.600000000016" cy="-169.99999999927144" fill="#DD3355" r="5"/>
<circle cx="2054.4000000000165" cy="-169.9999999989072" fill="#DD3355" r="5"/>
<circle cx="2059.200000000016" cy="-169.99999999848802" fill="#DD3355" r="5"/>
<circle cx="2064.0000000000164" cy="-169.999999998088" fill="#DD3355" r="5"/>
<circle cx="2068.8000000000166" cy="-169.99999999779973" fill="#DD3355" r="5"/>
<circle cx="2073.6000000000163" cy="-169.99999999773422" fill="#DD3355" r="5"/>
<circle cx="2078.400000000017" cy="-169.99999999802088" fill="#DD3355" r="5"/>
<circle cx="2083.2000000000166" cy="-169.9999999985347" fill="#DD3355" r="5"/>
<circle cx="2088.000000000017" cy="-169.99999999865614" fill="#DD3355" r="5"/>
<circle cx="2092.8000000000166" cy="-169.99999999850223" fill="#DD3355" r="5"/>
<circle cx="2097.6000000000167" cy="-169.99999999821617" fill="#DD3355" r="5"/>
<circle cx="2102.400000000017" cy="-169.99999999791683" fill="#DD3355" r="5"/>
<circle cx="2107.200000000017" cy="-169.99999999769878" fill="#DD3355" r="5"/>
<circle cx="2112.0000000000173" cy="-169.99999999763227" fill="#DD3355" r="5"/>
<circle cx="2116.800000000017" cy="-169.99999999776335" fill="#DD3355" r="5"/>
<circle cx="2121.600000000017" cy="-169.9999999981137" fill="#DD3355" r="5"/>
<circle cx="2126.400000000017" cy="-169.9999999986807" fill="#DD3355" r="5"/>
<circle cx="2131.2000000000176" cy="-169.99999999943745" fill="#DD3355" r="5"/>
<circle cx="2136.0000000000173" cy="-170.00000000033273" fill="#DD3355" r="5"/>
<circle cx="2140.8000000000175" cy="-170.0000000012911" fill="#DD3355" r="5"/>
<circle cx="2145.6000000000176" cy="-170.0000000022128" fill="#DD3355" r="5"/>
<circle cx="2150.4000000000174" cy="-170.00000000297365" fill="#DD3355" r="5"/>
<circle cx="2155.200000000018" cy="-170.00000000342536" fill="#DD3355" r="5"/>
<circle cx="2160.0000000000177" cy="-170.000000003396" fill="#DD3355" r="5"/>
<circle cx="2164.800000000018" cy="-170.0000000030044" fill="#DD3355" r="5"/>
<circle cx="2169.6000000000176" cy="-170.0000000025021" fill="#DD3355" r="5"/>
<circle cx="2174.400000000018" cy="-170.00000000196627" fill="#DD3355" r="5"/>
<circle cx="2179.200000000018" cy="-170.00000000146008" fill="#DD3355" r="5"/>
<circle cx="2184.000000000018" cy="-170.0000000010328" fill="#DD3355" r="5"/>
<circle cx="2188.8000000000184" cy="-170.0000000007198" fill="#DD3355" r="5"/>
<circle cx="2193.600000000018" cy="-170.00000000054263" fill="#DD3355" r="5"/>
<circle cx="2198.4000000000183" cy="-170.00000000050875" fill="#DD3355" r="5"/>
<circle cx="2203.200000000018" cy="-170.00000000061198" fill="#DD3355" r="5"/>
<circle cx="2208.0000000000186" cy="-170.00000000083193" fill="#DD3355" r="5"/>
<circle cx="2212.8000000000184" cy="-170.00000000113454" fill="#DD3355" r="5"/>
<circle cx="2217.6000000000186" cy="-170.0000000014717" fill="#DD3355" r="5"/>
<circle cx="2222.4000000000187" cy="-170.00000000178147" fill="#DD3355" r="5"/>
<circle cx="2227.2000000000185" cy="-170.00000000198798" fill="#DD3355" r="5"/>
<circle cx="2232.000000000019" cy="-170.00000000200149" fill="#DD3355" r="5"/>
<circle cx="2236.800000000019" cy="-170.00000000171823" fill="#DD3355" r="5"/>
<circle cx="2241.600000000019" cy="-170.0000000011564" fill="#DD3355" r="5"/>
<circle cx="2246.4000000000187" cy="-170.00000000110114" fill="#DD3355" r="5"/>
<circle cx="2251.200000000019" cy="-170.00000000149487" fill="#DD3355" r="5"/>
<circle cx="2256.000000000019" cy="-170.00000000211858" fill="#DD3355" r="5"/>
<circle cx="2260.8000000000193" cy="-170.0000000027877" fill="#DD3355" r="5"/>
<circle cx="2265.6000000000195" cy="-170.0000000033522" fill="#DD3355" r="5"/>
<circle cx="2270.400000000019" cy="-170.00000000369656" fill="#DD3355" r="5"/>
<circle cx="2275.2000000000194" cy="-170.0000000037395" fill="#DD3355" r="5"/>
<circle cx="2280.000000000019" cy="-170.00000000343454" fill="#DD3355" r="5"/>
<circle cx="2284.8000000000197" cy="-170.00000000276947" fill="#DD3355" r="5"/>
<circle cx="2289.6000000000195" cy="-170.00000000176655" fill="#DD3355" r="5"/>
<circle cx="2294.4000000000196" cy="-170.00000000048263" fill="#DD3355" r="5"/>
<circle cx="2299.20000000002" cy="-169.9999999990089" fill="#DD3355" r="5"/>
<circle cx="2304.0000000000196" cy="-169.99999999747118" fill="#DD3355" r="5"/>
<circle cx="2308.80000000002" cy="-169.99999999602957" fill="#DD3355" r="5"/>
<circle cx="2313.60000000002" cy="-169.99999999487883" fill="#DD3355" r="5"/>
<circle cx="2318.40000000002" cy="-169.99999999424807" fill="#DD3355" r="5"/>
<circle cx="2323.20000000002" cy="-169.9999999944009" fill="#DD3355" r="5"/>
<circle cx="2328.00000000002" cy="-169.99999999508114" fill="#DD3355" r="5"/>
<circle cx="2332.80000000002" cy="-169.99999999580274" fill="#DD3355" r="5"/>
<circle cx="2337.6000000000204" cy="-169.99999999650672" fill="#DD3355" r="5"/>
<circle cx="2342.4000000000206" cy="-169.99999999714623" fill="#DD3355" r="5"/>
<circle cx="2347.2000000000203" cy="-169.99999999768642" fill="#DD3355" r="5"/>
<circle cx="2352.0000000000205" cy="-169.99999999810444" fill="#DD3355" r="5"/>
<circle cx="2356.80000000002" cy="-169.99999999838957" fill="#DD3355" r="5"/>
<circle cx="2361.600000000021" cy="-169.99999999854305" fill="#DD3355" r="5"/>
<circle cx="2366.4000000000206" cy="-169.99999999857826" fill="#DD3355" r="5"/>
<circle cx="2371.2000000000207" cy="-169.9999999985205" fill="#DD3355" r="5"/>
<circle cx="2376.000000000021" cy="-169.9999999984072" fill="#DD3355" r="5"/>
<circle cx="2380.8000000000206" cy="-169.99999999828782" fill="#DD3355" r="5"/>
<circle cx="2385.6000000000213" cy="-169.99999999822387" fill="#DD3355" r="5"/>
<circle cx="2390.400000000021" cy="-169.9999999982888" fill="#DD3355" r="5"/>
<circle cx="2395.200000000021" cy="-169.99999999856828" fill="#DD3355" r="5"/>
</g>
</g>
<g>
<g>
<line stroke="black" stroke-width="1" x1="0" x2="0" y1="0" y2="10"/>
<line stroke="black" stroke-width="1" x1="96" x2="96" y1="0" y2="10"/>
<line stroke="black" stroke-width="1" x1="192" x2="192" y1="0" y2="10"/>
<line stroke="black" stroke-width="1" x1="288" x2="288" y1="0" y2="10"/>
<line stroke="black" stroke-width="1" x1="384" x2="384" y1="0" y2="10"/>
<line stroke="black" stroke-width="1" x1="480" x2="480" y1="0" y2="10"/>
</g>
<line stroke="black" stroke-width="1" x1="0" x2="480" y1="0" y2="0"/>
<g>
<text font-size="12" text-anchor="middle" x="0" y="20">
0
</text>
<text font-size="12" text-anchor="middle" x="96" y="20">
2
</text>
<text font-size="12" text-anchor="middle" x="192" y="20">
4
</text>
<text font-size="12" text-anchor="middle" x="288" y="20">
6
</text>
<text font-size="12" text-anchor="middle" x="384" y="20">
8
</text>
<text font-size="12" text-anchor="middle" x="480" y="20">
10
</text>
</g>
<text font-size="12" text-anchor="middle" x="240" y="30">
Some varying variable
</text>
</g>
<g>
<g>
<line stroke="black" stroke-width="1" x1="0" x2="-10" y1="-0" y2="-0"/>
<line stroke="black" stroke-width="1" x1="0" x2="-10" y1="-85" y2="-85"/>
<line stroke="black" stroke-width="1" x1="0" x2="-10" y1="-170" y2="-170"/>
<line stroke="black" stroke-width="1" x1="0" x2="-10" y1="-255" y2="-255"/>
<line stroke="black" stroke-width="1" x1="0" x2="-10" y1="-340" y2="-340"/>
</g>
<line stroke="black" stroke-width="1" x1="0" x2="0" y1="0" y2="-340"/>
<g>
<text dominant-baseline="middle" font-size="12" text-anchor="end" x="-15" y="-0">
-2
</text>
<text dominant-baseline="middle" font-size="12" text-anchor="end" x="-15" y="-85">
-1
</text>
<text dominant-baseline="middle" font-size="12" text-anchor="end" x="-15" y="-170">
0
</text>
<text dominant-baseline="middle" font-size="12" text-anchor="end" x="-15" y="-255">
1
</text>
<text dominant-baseline="middle" font-size="12" text-anchor="end" x="-15" y="-340">
2
</text>
</g>
<text font-size="12" text-anchor="middle" transform="rotate(-90 -24 -170)" x="-24" y="-182">
The response of something
</text>
</g>
</g>
</svg>